<?xml version="1.0" encoding="utf-8" standalone="no"?>
<!DOCTYPE svg PUBLIC "-//W3C//DTD SVG 1.1//EN"
  "http://www.w3.org/Graphics/SVG/1.1/DTD/svg11.dtd">
<!-- Created with matplotlib (https://matplotlib.org/) -->
<svg height="288pt" version="1.1" viewBox="0 0 288 288" width="288pt" xmlns="http://www.w3.org/2000/svg" xmlns:xlink="http://www.w3.org/1999/xlink">
 <metadata>
  <rdf:RDF xmlns:cc="http://creativecommons.org/ns#" xmlns:dc="http://purl.org/dc/elements/1.1/" xmlns:rdf="http://www.w3.org/1999/02/22-rdf-syntax-ns#">
   <cc:Work>
    <dc:type rdf:resource="http://purl.org/dc/dcmitype/StillImage"/>
    <dc:date>2020-11-10T10:00:04.217220</dc:date>
    <dc:format>image/svg+xml</dc:format>
    <dc:creator>
     <cc:Agent>
      <dc:title>Matplotlib v3.3.2, https://matplotlib.org/</dc:title>
     </cc:Agent>
    </dc:creator>
   </cc:Work>
  </rdf:RDF>
 </metadata>
 <defs>
  <style type="text/css">*{stroke-linecap:butt;stroke-linejoin:round;}</style>
 </defs>
 <g id="figure_1">
  <g id="patch_1">
   <path d="M 0 288 
L 288 288 
L 288 0 
L 0 0 
z
" style="fill:none;"/>
  </g>
  <g id="axes_1">
   <g id="line2d_1">
    <defs>
     <path d="M 0 3 
C 0.795609 3 1.55874 2.683901 2.12132 2.12132 
C 2.683901 1.55874 3 0.795609 3 0 
C 3 -0.795609 2.683901 -1.55874 2.12132 -2.12132 
C 1.55874 -2.683901 0.795609 -3 0 -3 
C -0.795609 -3 -1.55874 -2.683901 -2.12132 -2.12132 
C -2.683901 -1.55874 -3 -0.795609 -3 0 
C -3 0.795609 -2.683901 1.55874 -2.12132 2.12132 
C -1.55874 2.683901 -0.795609 3 0 3 
z
" id="me238ed495e" style="stroke:#000000;"/>
    </defs>
    <g clip-path="url(#p26908d1114)">
     <use style="stroke:#000000;" x="35.018182" xlink:href="#me238ed495e" y="252.981818"/>
     <use style="stroke:#000000;" x="59.236364" xlink:href="#me238ed495e" y="252.981818"/>
     <use style="stroke:#000000;" x="83.454545" xlink:href="#me238ed495e" y="252.981818"/>
     <use style="stroke:#000000;" x="107.672727" xlink:href="#me238ed495e" y="252.981818"/>
     <use style="stroke:#000000;" x="131.890909" xlink:href="#me238ed495e" y="252.981818"/>
     <use style="stroke:#000000;" x="156.109091" xlink:href="#me238ed495e" y="252.981818"/>
     <use style="stroke:#000000;" x="180.327273" xlink:href="#me238ed495e" y="252.981818"/>
     <use style="stroke:#000000;" x="204.545455" xlink:href="#me238ed495e" y="252.981818"/>
     <use style="stroke:#000000;" x="228.763636" xlink:href="#me238ed495e" y="252.981818"/>
     <use style="stroke:#000000;" x="252.981818" xlink:href="#me238ed495e" y="252.981818"/>
    </g>
   </g>
   <g id="line2d_2">
    <g clip-path="url(#p26908d1114)">
     <use style="stroke:#000000;" x="35.018182" xlink:href="#me238ed495e" y="216.654545"/>
     <use style="stroke:#000000;" x="59.236364" xlink:href="#me238ed495e" y="216.654545"/>
     <use style="stroke:#000000;" x="83.454545" xlink:href="#me238ed495e" y="216.654545"/>
     <use style="stroke:#000000;" x="107.672727" xlink:href="#me238ed495e" y="216.654545"/>
     <use style="stroke:#000000;" x="131.890909" xlink:href="#me238ed495e" y="216.654545"/>
     <use style="stroke:#000000;" x="156.109091" xlink:href="#me238ed495e" y="216.654545"/>
     <use style="stroke:#000000;" x="180.327273" xlink:href="#me238ed495e" y="216.654545"/>
     <use style="stroke:#000000;" x="204.545455" xlink:href="#me238ed495e" y="216.654545"/>
     <use style="stroke:#000000;" x="228.763636" xlink:href="#me238ed495e" y="216.654545"/>
     <use style="stroke:#000000;" x="252.981818" xlink:href="#me238ed495e" y="216.654545"/>
    </g>
   </g>
   <g id="line2d_3">
    <g clip-path="url(#p26908d1114)">
     <use style="stroke:#000000;" x="35.018182" xlink:href="#me238ed495e" y="180.327273"/>
     <use style="stroke:#000000;" x="59.236364" xlink:href="#me238ed495e" y="180.327273"/>
     <use style="stroke:#000000;" x="83.454545" xlink:href="#me238ed495e" y="180.327273"/>
     <use style="stroke:#000000;" x="107.672727" xlink:href="#me238ed495e" y="180.327273"/>
     <use style="stroke:#000000;" x="131.890909" xlink:href="#me238ed495e" y="180.327273"/>
     <use style="stroke:#000000;" x="156.109091" xlink:href="#me238ed495e" y="180.327273"/>
     <use style="stroke:#000000;" x="180.327273" xlink:href="#me238ed495e" y="180.327273"/>
     <use style="stroke:#000000;" x="204.545455" xlink:href="#me238ed495e" y="180.327273"/>
     <use style="stroke:#000000;" x="228.763636" xlink:href="#me238ed495e" y="180.327273"/>
     <use style="stroke:#000000;" x="252.981818" xlink:href="#me238ed495e" y="180.327273"/>
    </g>
   </g>
   <g id="line2d_4">
    <g clip-path="url(#p26908d1114)">
     <use style="stroke:#000000;" x="35.018182" xlink:href="#me238ed495e" y="144"/>
     <use style="stroke:#000000;" x="59.236364" xlink:href="#me238ed495e" y="144"/>
     <use style="stroke:#000000;" x="83.454545" xlink:href="#me238ed495e" y="144"/>
     <use style="stroke:#000000;" x="107.672727" xlink:href="#me238ed495e" y="144"/>
     <use style="stroke:#000000;" x="131.890909" xlink:href="#me238ed495e" y="144"/>
     <use style="stroke:#000000;" x="156.109091" xlink:href="#me238ed495e" y="144"/>
     <use style="stroke:#000000;" x="180.327273" xlink:href="#me238ed495e" y="144"/>
     <use style="stroke:#000000;" x="204.545455" xlink:href="#me238ed495e" y="144"/>
     <use style="stroke:#000000;" x="228.763636" xlink:href="#me238ed495e" y="144"/>
     <use style="stroke:#000000;" x="252.981818" xlink:href="#me238ed495e" y="144"/>
    </g>
   </g>
   <g id="line2d_5">
    <g clip-path="url(#p26908d1114)">
     <use style="stroke:#000000;" x="35.018182" xlink:href="#me238ed495e" y="107.672727"/>
     <use style="stroke:#000000;" x="59.236364" xlink:href="#me238ed495e" y="107.672727"/>
     <use style="stroke:#000000;" x="83.454545" xlink:href="#me238ed495e" y="107.672727"/>
     <use style="stroke:#000000;" x="107.672727" xlink:href="#me238ed495e" y="107.672727"/>
     <use style="stroke:#000000;" x="131.890909" xlink:href="#me238ed495e" y="107.672727"/>
     <use style="stroke:#000000;" x="156.109091" xlink:href="#me238ed495e" y="107.672727"/>
     <use style="stroke:#000000;" x="180.327273" xlink:href="#me238ed495e" y="107.672727"/>
     <use style="stroke:#000000;" x="204.545455" xlink:href="#me238ed495e" y="107.672727"/>
     <use style="stroke:#000000;" x="228.763636" xlink:href="#me238ed495e" y="107.672727"/>
     <use style="stroke:#000000;" x="252.981818" xlink:href="#me238ed495e" y="107.672727"/>
    </g>
   </g>
   <g id="line2d_6">
    <g clip-path="url(#p26908d1114)">
     <use style="stroke:#000000;" x="35.018182" xlink:href="#me238ed495e" y="71.345455"/>
     <use style="stroke:#000000;" x="59.236364" xlink:href="#me238ed495e" y="71.345455"/>
     <use style="stroke:#000000;" x="83.454545" xlink:href="#me238ed495e" y="71.345455"/>
     <use style="stroke:#000000;" x="107.672727" xlink:href="#me238ed495e" y="71.345455"/>
     <use style="stroke:#000000;" x="131.890909" xlink:href="#me238ed495e" y="71.345455"/>
     <use style="stroke:#000000;" x="156.109091" xlink:href="#me238ed495e" y="71.345455"/>
     <use style="stroke:#000000;" x="180.327273" xlink:href="#me238ed495e" y="71.345455"/>
     <use style="stroke:#000000;" x="204.545455" xlink:href="#me238ed495e" y="71.345455"/>
     <use style="stroke:#000000;" x="228.763636" xlink:href="#me238ed495e" y="71.345455"/>
     <use style="stroke:#000000;" x="252.981818" xlink:href="#me238ed495e" y="71.345455"/>
    </g>
   </g>
   <g id="line2d_7">
    <g clip-path="url(#p26908d1114)">
     <use style="stroke:#000000;" x="35.018182" xlink:href="#me238ed495e" y="35.018182"/>
     <use style="stroke:#000000;" x="59.236364" xlink:href="#me238ed495e" y="35.018182"/>
     <use style="stroke:#000000;" x="83.454545" xlink:href="#me238ed495e" y="35.018182"/>
     <use style="stroke:#000000;" x="107.672727" xlink:href="#me238ed495e" y="35.018182"/>
     <use style="stroke:#000000;" x="131.890909" xlink:href="#me238ed495e" y="35.018182"/>
     <use style="stroke:#000000;" x="156.109091" xlink:href="#me238ed495e" y="35.018182"/>
     <use style="stroke:#000000;" x="180.327273" xlink:href="#me238ed495e" y="35.018182"/>
     <use style="stroke:#000000;" x="204.545455" xlink:href="#me238ed495e" y="35.018182"/>
     <use style="stroke:#000000;" x="228.763636" xlink:href="#me238ed495e" y="35.018182"/>
     <use style="stroke:#000000;" x="252.981818" xlink:href="#me238ed495e" y="35.018182"/>
    </g>
   </g>
   <g id="line2d_8">
    <path clip-path="url(#p26908d1114)" d="M 35.018182 277.2 
L 35.018182 10.8 
" style="fill:none;stroke:#000000;stroke-linecap:square;stroke-opacity:0.2;"/>
   </g>
   <g id="line2d_9">
    <path clip-path="url(#p26908d1114)" d="M 59.236364 277.2 
L 59.236364 10.8 
" style="fill:none;stroke:#000000;stroke-linecap:square;stroke-opacity:0.2;"/>
   </g>
   <g id="line2d_10">
    <path clip-path="url(#p26908d1114)" d="M 83.454545 277.2 
L 83.454545 10.8 
" style="fill:none;stroke:#000000;stroke-linecap:square;stroke-opacity:0.2;"/>
   </g>
   <g id="line2d_11">
    <path clip-path="url(#p26908d1114)" d="M 107.672727 277.2 
L 107.672727 10.8 
" style="fill:none;stroke:#000000;stroke-linecap:square;stroke-opacity:0.2;"/>
   </g>
   <g id="line2d_12">
    <path clip-path="url(#p26908d1114)" d="M 131.890909 277.2 
L 131.890909 10.8 
" style="fill:none;stroke:#000000;stroke-linecap:square;stroke-opacity:0.2;"/>
   </g>
   <g id="line2d_13">
    <path clip-path="url(#p26908d1114)" d="M 156.109091 277.2 
L 156.109091 10.8 
" style="fill:none;stroke:#000000;stroke-linecap:square;stroke-opacity:0.2;"/>
   </g>
   <g id="line2d_14">
    <path clip-path="url(#p26908d1114)" d="M 180.327273 277.2 
L 180.327273 10.8 
" style="fill:none;stroke:#000000;stroke-linecap:square;stroke-opacity:0.2;"/>
   </g>
   <g id="line2d_15">
    <path clip-path="url(#p26908d1114)" d="M 204.545455 277.2 
L 204.545455 10.8 
" style="fill:none;stroke:#000000;stroke-linecap:square;stroke-opacity:0.2;"/>
   </g>
   <g id="line2d_16">
    <path clip-path="url(#p26908d1114)" d="M 228.763636 277.2 
L 228.763636 10.8 
" style="fill:none;stroke:#000000;stroke-linecap:square;stroke-opacity:0.2;"/>
   </g>
   <g id="line2d_17">
    <path clip-path="url(#p26908d1114)" d="M 252.981818 277.2 
L 252.981818 10.8 
" style="fill:none;stroke:#000000;stroke-linecap:square;stroke-opacity:0.2;"/>
   </g>
   <g id="line2d_18">
    <path clip-path="url(#p26908d1114)" d="M 38.255055 256.218692 
L 40.125908 254.190366 
L 41.748271 252.103244 
L 43.043216 250.058865 
L 43.844319 248.416109 
L 44.32961 246.936721 
L 44.479892 245.867102 
L 44.394852 244.974432 
L 44.158614 244.402782 
L 43.776776 243.96779 
L 43.255419 243.676384 
L 42.60285 243.533208 
L 41.618641 243.565931 
L 40.470272 243.832835 
L 38.916 244.452492 
L 37.222259 245.377339 
L 35.150984 246.797353 
L 33.073248 248.518239 
L 31.090133 250.456278 
L 29.298116 252.517183 
L 27.78438 254.600693 
L 26.622567 256.605445 
L 25.950198 258.186985 
L 25.602294 259.582277 
L 25.569571 260.566486 
L 25.771844 261.362057 
L 26.099672 261.849228 
L 26.569566 262.195147 
L 27.17404 262.394305 
L 28.104025 262.432262 
L 29.205971 262.235178 
L 30.716446 261.695731 
L 32.380843 260.844488 
L 34.139608 259.711907 
L 36.226729 258.089544 
L 38.255055 256.218692 
L 38.255055 256.218692 
" style="fill:none;stroke:#000000;stroke-linecap:square;stroke-width:1.2;"/>
   </g>
   <g id="line2d_19">
    <path clip-path="url(#p26908d1114)" d="M 40.557535 258.521171 
L 42.88133 256.059608 
L 45.009562 253.521496 
L 46.889299 250.969963 
L 48.47379 248.468466 
L 49.723629 246.07922 
L 50.60773 243.861648 
L 51.036583 242.248438 
L 51.210274 240.806203 
L 51.126037 239.557916 
L 50.894246 238.761067 
L 50.52012 238.091713 
L 50.007012 237.555856 
L 49.359522 237.158299 
L 48.583457 236.902607 
L 47.360879 236.786138 
L 45.941691 236.927655 
L 44.348499 237.324904 
L 42.606682 237.971556 
L 40.262865 239.114536 
L 37.788609 240.602408 
L 35.245449 242.398168 
L 32.696638 244.457152 
L 30.205565 246.728152 
L 27.834186 249.154686 
L 25.641479 251.676405 
L 23.68198 254.23059 
L 22.004422 256.753717 
L 20.650528 259.183034 
L 19.65397 261.458121 
L 19.130978 263.128956 
L 18.861057 264.638154 
L 18.848507 265.961675 
L 19.093529 267.078436 
L 19.444132 267.769487 
L 19.934363 268.327961 
L 20.559826 268.748849 
L 21.314915 269.028379 
L 22.19286 269.164045 
L 23.540808 269.119229 
L 25.071582 268.817355 
L 26.760798 268.263233 
L 29.053929 267.229674 
L 31.495396 265.841759 
L 34.024478 264.134004 
L 36.578275 262.148886 
L 39.09327 259.935774 
L 40.557535 258.521171 
L 40.557535 258.521171 
" style="fill:none;stroke:#000000;stroke-linecap:square;stroke-width:1.2;"/>
   </g>
   <g id="line2d_20">
    <path clip-path="url(#p26908d1114)" d="M 44.497834 262.46147 
L 47.702969 259.105331 
L 50.706044 255.651649 
L 53.459223 252.155439 
L 55.918649 248.672392 
L 58.045146 245.257991 
L 59.80484 241.966625 
L 61.1697 238.850723 
L 61.92091 236.658931 
L 62.430925 234.613481 
L 62.695173 232.73271 
L 62.711285 231.033482 
L 62.479116 229.53103 
L 62.000748 228.238825 
L 61.28047 227.168451 
L 60.324738 226.329506 
L 59.142123 225.72951 
L 57.743225 225.373842 
L 56.140588 225.265693 
L 54.34858 225.40603 
L 52.383266 225.793596 
L 50.262266 226.424917 
L 48.004596 227.294331 
L 44.816911 228.810148 
L 41.47314 230.711003 
L 38.026545 232.966615 
L 34.532029 235.541056 
L 31.045257 238.393315 
L 27.621772 241.477958 
L 24.316105 244.74585 
L 21.180915 248.144935 
L 18.266143 251.621068 
L 15.618219 255.118877 
L 13.279322 258.582644 
L 11.28671 261.957193 
L 9.672123 265.188772 
L 8.46128 268.225902 
L 7.82996 270.346902 
L 7.442394 272.312216 
L 7.302056 274.104225 
L 7.410206 275.706862 
L 7.765873 277.105759 
L 8.365869 278.288375 
L 9.204815 279.244106 
L 10.275189 279.964384 
L 11.567394 280.442753 
L 13.069846 280.674921 
L 14.769074 280.65881 
L 16.649844 280.394561 
L 18.695295 279.884546 
L 20.887087 279.133336 
L 23.205571 278.147666 
L 26.457891 276.484292 
L 29.84657 274.44654 
L 33.317629 272.06687 
L 36.815777 269.383189 
L 40.28529 266.438246 
L 43.670902 263.278952 
L 44.497834 262.46147 
L 44.497834 262.46147 
" style="fill:none;stroke:#000000;stroke-linecap:square;stroke-width:1.2;"/>
   </g>
   <g id="line2d_21">
    <path clip-path="url(#p26908d1114)" d="M 51.240978 269.204615 
L 55.383845 264.916303 
L 59.344125 260.520994 
L 63.086313 256.058093 
L 66.576857 251.567612 
L 69.784464 247.089809 
L 72.680376 242.664831 
L 75.23863 238.332349 
L 77.436291 234.131207 
L 79.253655 230.099068 
L 80.674428 226.272083 
L 81.685873 222.684562 
L 82.128134 220.441898 
L 82.3826 218.328947 
L 82.448259 216.354133 
L 82.324846 214.525328 
L 82.012856 212.849821 
L 81.513531 211.334293 
L 80.828862 209.984783 
L 79.961578 208.806673 
L 78.915137 207.804657 
L 77.693709 206.982731 
L 76.302165 206.344171 
L 74.74605 205.891522 
L 73.031568 205.626589 
L 71.165554 205.550428 
L 69.155446 205.663342 
L 67.009256 205.964882 
L 64.735541 206.453844 
L 62.343364 207.128281 
L 58.553961 208.48162 
L 54.55355 210.233923 
L 50.377995 212.369478 
L 46.064734 214.869142 
L 41.652435 217.710501 
L 37.180657 220.868084 
L 32.689492 224.31358 
L 28.219204 228.0161 
L 23.809872 231.942447 
L 19.501027 236.057422 
L 15.331301 240.324132 
L 11.338076 244.704323 
L 7.557153 249.158726 
L 4.022431 253.647404 
L 0.765599 258.130115 
L -1 260.739392 
M 27.260388 289 
L 30.61488 286.712166 
L 35.101383 283.40692 
L 39.587139 279.8289 
L 44.031933 276.010185 
L 48.395914 271.98501 
L 51.240978 269.204615 
L 51.240978 269.204615 
" style="fill:none;stroke:#000000;stroke-linecap:square;stroke-width:1.2;"/>
   </g>
   <g id="line2d_22">
    <path clip-path="url(#p26908d1114)" d="M 62.780713 280.744349 
L 67.538882 275.875511 
L 72.167413 270.915411 
L 76.647858 265.883823 
L 80.962353 260.800804 
L 85.093702 255.686616 
L 89.025436 250.561646 
L 92.74188 245.446324 
L 96.228221 240.36104 
L 99.470561 235.326066 
L 102.455975 230.361474 
L 105.172562 225.487052 
L 107.609492 220.722233 
L 109.757053 216.08601 
L 111.606683 211.596864 
L 113.151008 207.272692 
L 114.383873 203.130729 
L 115.300363 199.187487 
L 115.896825 195.458685 
L 116.170881 191.959187 
L 116.121438 188.702943 
L 115.748694 185.702934 
L 115.054134 182.971118 
L 114.040528 180.518386 
L 112.711915 178.354513 
L 111.073593 176.488128 
L 109.132091 174.926668 
L 106.895149 173.676359 
L 104.371685 172.742185 
L 101.571757 172.12787 
L 98.506528 171.835862 
L 95.188215 171.867326 
L 91.630046 172.222136 
L 87.846207 172.898878 
L 83.851779 173.894854 
L 79.662686 175.206093 
L 75.295627 176.82737 
L 70.76801 178.75222 
L 66.097884 180.972972 
L 61.303866 183.480772 
L 56.405064 186.265623 
L 51.421009 189.316425 
L 46.371567 192.621016 
L 41.276867 196.166222 
L 36.157218 199.937912 
L 31.033028 203.921051 
L 25.924725 208.09976 
L 20.85267 212.457383 
L 15.837084 216.976547 
L 10.897959 221.63924 
L 6.054984 226.426873 
L 1.327465 231.320361 
L -1 233.814883 
M 54.178027 289 
L 57.911874 285.502518 
L 62.780713 280.744349 
L 62.780713 280.744349 
" style="fill:none;stroke:#000000;stroke-linecap:square;stroke-width:1.2;"/>
   </g>
   <g id="line2d_23">
    <path clip-path="url(#p26908d1114)" d="M 93.655335 289 
L 98.592713 283.672084 
L 106.260224 275.061385 
L 113.643743 266.36267 
L 120.713838 257.610616 
L 127.442324 248.84011 
L 133.802381 240.086113 
L 139.768655 231.383523 
L 145.317363 222.76703 
L 150.426386 214.270982 
L 155.075358 205.929247 
L 159.245746 197.775077 
L 162.920928 189.840977 
L 166.086251 182.158576 
L 168.729099 174.758496 
L 170.838936 167.670238 
L 172.407351 160.922056 
L 172.986487 157.683957 
L 173.428093 154.540852 
L 173.731729 151.495876 
L 173.897092 148.552062 
L 173.924018 145.712347 
L 173.81248 142.97956 
L 173.562588 140.356426 
L 173.174592 137.84556 
L 172.648879 135.449463 
L 171.985973 133.170526 
L 171.186534 131.011019 
L 170.251359 128.973095 
L 169.181382 127.058786 
L 167.977667 125.269999 
L 166.641416 123.608519 
L 165.173959 122.076 
L 163.576761 120.673972 
L 161.851412 119.40383 
L 159.999634 118.266843 
L 158.023271 117.264141 
L 155.924294 116.396727 
L 153.704795 115.665463 
L 151.366987 115.071079 
L 148.913199 114.614168 
L 146.345879 114.295184 
L 143.667585 114.114447 
L 140.880987 114.072135 
L 137.988862 114.168292 
L 134.994094 114.402821 
L 131.899668 114.775488 
L 128.708668 115.285923 
L 125.424276 115.933615 
L 122.049765 116.717921 
L 115.043928 118.693107 
L 107.719084 121.203607 
L 100.104434 124.239414 
L 92.230331 127.788426 
L 84.128163 131.836496 
L 75.830229 136.367486 
L 67.369606 141.363335 
L 58.78002 146.804128 
L 50.095713 152.668177 
L 41.351303 158.932105 
L 32.581646 165.570943 
L 23.821703 172.558227 
L 15.106392 179.866102 
L 6.470455 187.465438 
L -1 194.344561 
L -1 194.344561 
" style="fill:none;stroke:#000000;stroke-linecap:square;stroke-width:1.2;"/>
   </g>
   <g id="line2d_24">
    <path clip-path="url(#p26908d1114)" d="M 158.454988 289 
L 163.318464 283.339158 
L 169.57233 275.880849 
L 175.69207 268.399714 
L 181.671583 260.903211 
L 187.504909 253.398811 
L 193.186233 245.893995 
L 198.709891 238.396245 
L 204.070378 230.913033 
L 209.26235 223.451821 
L 214.280631 216.020045 
L 219.12022 208.625112 
L 223.776292 201.274396 
L 228.244206 193.975223 
L 232.519507 186.734869 
L 236.597936 179.560551 
L 240.475425 172.459421 
L 244.14811 165.438558 
L 247.612329 158.504959 
L 250.86463 151.665538 
L 253.901771 144.92711 
L 256.720724 138.296394 
L 259.318679 131.779999 
L 261.693046 125.38442 
L 263.841459 119.116033 
L 265.761776 112.981087 
L 267.452082 106.985696 
L 268.910694 101.135837 
L 270.136156 95.437342 
L 271.127248 89.89589 
L 271.88298 84.517007 
L 272.402601 79.306052 
L 272.685592 74.268221 
L 272.731671 69.408536 
L 272.540792 64.731841 
L 272.113146 60.242797 
L 271.449157 55.94588 
L 270.54949 51.845373 
L 269.415039 47.945362 
L 268.046937 44.249737 
L 266.446546 40.76218 
L 264.615463 37.486169 
L 262.555512 34.424968 
L 260.268747 31.581629 
L 257.757448 28.958987 
L 255.024117 26.559656 
L 252.071479 24.386027 
L 248.902478 22.440267 
L 245.520272 20.724317 
L 241.928233 19.239885 
L 238.129942 17.988453 
L 234.129185 16.971267 
L 229.929949 16.189342 
L 225.536421 15.643456 
L 220.952981 15.334155 
L 216.184196 15.261746 
L 211.234822 15.426301 
L 206.109791 15.827657 
L 200.814211 16.465414 
L 195.353363 17.338935 
L 189.73269 18.44735 
L 183.957793 19.789554 
L 178.03443 21.364209 
L 171.968506 23.169746 
L 165.766066 25.204364 
L 159.433294 27.466036 
L 152.976503 29.952507 
L 146.402128 32.661298 
L 139.716723 35.58971 
L 132.926952 38.734823 
L 126.039584 42.093502 
L 119.061483 45.662399 
L 111.999607 49.437956 
L 104.860993 53.416411 
L 97.652759 57.593796 
L 90.382089 61.965949 
L 83.056232 66.52851 
L 75.682489 71.276932 
L 68.268211 76.206482 
L 60.820788 81.312245 
L 53.347645 86.589131 
L 45.856231 92.031882 
L 38.354013 97.635071 
L 30.84847 103.393114 
L 23.347083 109.300269 
L 15.857331 115.350649 
L 8.386678 121.538224 
L -1 129.545945 
L -1 129.545945 
" style="fill:none;stroke:#000000;stroke-linecap:square;stroke-width:1.2;"/>
   </g>
  </g>
 </g>
 <defs>
  <clipPath id="p26908d1114">
   <rect height="266.4" width="266.4" x="10.8" y="10.8"/>
  </clipPath>
 </defs>
</svg>
