<svg width="240" height="180" viewBox="0 0 800 600" xmlns="http://www.w3.org/2000/svg">
 <g>
  <title>background</title>
  <rect fill="none" id="canvas_background" height="601.98231" width="801.97642" y="-1" x="-1"/>
 </g>
 <defs>
  <linearGradient y2="0.49" x2="0" y1="0.51" x1="0" id="svg_26">
   <stop offset="0" stop-color="#000000"/>
   <stop offset="1" stop-color="#333333"/>
  </linearGradient>
  <linearGradient id="svg_27" x1="0" y1="0.51" x2="0" y2="0.49">
   <stop stop-color="#ff3f3f" offset="0"/>
   <stop stop-color="#ff7a7a" offset="1"/>
  </linearGradient>
 </defs>
 <g>
  <title>Layer 1</title>
  <g id="svg_20">
   <path id="svg_1" stroke-width="0.375" stroke="#000" fill-opacity="0.7" d="m23.517,161.76099l679.54605,-77.30499l44.41986,413.73401l-679.54605,77.30499l-44.42,-413.73401l-0.00004,0l0.00006,0l0.00006,0l0.00006,0z"/>
   <path id="svg_2" stroke-width="3.75" stroke-linejoin="bevel" stroke="#000" fill="#fff" d="m68.106,111.442l664.83998,-73.207l44.91302,407.88402l-664.84005,73.20697l-44.91299,-407.88399l0.00003,0z"/>
   <path id="svg_3" stroke-width="2.5" stroke-linejoin="bevel" stroke="#000" fill="#f3f3eb" d="m81.59399,124.021l639.016,-70.363l37.00104,336.02803l-639.01599,70.3638l-37.00101,-336.02907l-0.00003,-0.00002l0,0.00002l0,0.00002l0,0.00003l0,0.00003l0,0.00003l0,0.00003l0,0.00003l0,0.00003l0,0.00003z"/>
   <path id="svg_4" d="m140.13,468.37c0.403,7.047 0.22499,14.12598 0.82799,21.164c-15.76701,16.18799 -2.92,3.77002 2.957,-9.836c15.75101,-27.02502 13.35701,-4.08698 13.222,9.75201c5.32002,6.44885 -14.87598,19.664 0.65501,0.92291c7.94797,-9.04007 22.226,-28.98193 24.95299,-8.32391c-15.22198,13.70697 -11.401,5.37396 5.45001,-2.43906c10.76099,16.04202 -9.47502,23.29495 4.25101,6.97995c7.939,-8.52109 22.159,-33.20096 26.87001,-12.2879c-19.00601,14.78998 8.32898,-8.03699 17.31398,-13.492c1.504,5.09198 0.96399,10.67798 1.20801,16.00098l-11.92801,7.71704c-0.131,-4.81201 -0.151,-9.64001 -0.334,-14.44c25.97702,-19.70801 -12.14899,15.789 -18.04199,12.41797c-3.603,-16.15796 16.57101,-22.422 -3.224,-2.40997c-8.603,10.58502 -23.70599,29.24097 -27.80399,7.86401c27.59198,-22.54504 -3.43803,9.22296 -5.68501,1.91199c-1.752,-15.11798 15.05699,-23.34399 -0.81601,-6.19904c-5.04599,6.28705 -22.40799,29.16003 -24.70799,13.35205c0.472,-16.86603 -1.452,-18.65601 12.505,-28.71899c1.243,-0.89606 -3.16101,4.90698 -1.783,4.237c-3.052,7.38098 -19.38802,37.38495 -26.946,24.78894c-0.584,-6.96796 -0.25499,-14.02399 -1.12701,-20.96295l12.18401,-7.99902l0,0l-0.00002,0z"/>
   <path id="svg_5" d="m236.95999,486.22998c6.11401,-12.495 15.05701,-18.88995 24.92599,-24.026c11.12302,21.93604 -10.22499,28.95001 3.52701,10.22205c15.95502,-15.41705 31.93301,-54.771 38.375,-11.90503c8.86401,15.42499 -9.69699,27.26599 0.129,9.93201c13.72601,-13.71503 13.68701,-13.16998 18.07901,0.30798l-11.75601,8.00702c-3.491,-11.23303 -1.60098,-13.84998 5.94702,-15.31799c-6.80402,12.125 -24.20801,28.216 -23.80801,4.61798c-0.71301,-5.02399 -1.09399,-10.17999 -2.41998,-15.09399c-0.31302,-1.15698 -3.20001,-2.03003 -2.27103,-2.78796c21.86502,-17.85901 -7.46198,8.74115 -10.577,15.73407c-10.13098,14.37091 -23.99399,29.64801 -26.77798,4.81604c19.42398,-15.94812 2.97699,-0.95514 -0.61002,8.48114l-12.76398,7.01297l0.00098,0l0,0l0,-0.00003l0,-0.00003l0,-0.00003l0,-0.00003l0,-0.00003l0,-0.00003l0,-0.00003l0,-0.00003l0,-0.00003z"/>
   <path id="svg_6" d="m341.97,460.54999c-0.96799,3.492 -0.57101,7.35803 0.061,9.85602c0.746,-0.146 1.37698,-0.58704 2.07199,-0.883l-10.396,9.93597c-0.88599,0.06299 -1.85101,0.75403 -2.77301,0.19904c-2.26898,-3.58099 -2.32999,-6.70801 -1.14899,-11.10901l12.18399,-7.99902l0.00101,0z"/>
   <path id="svg_7" d="m354.5,462.26001c5.271,8.659 10.47101,0.26501 -4.39099,10.91296l12.53299,-6.71198c-12.34201,9.492 -12.97299,14.08203 -20.327,3.797l12.18399,-7.99799l0.00101,0z"/>
   <path id="svg_8" d="m386.48001,444.33002c-1.50302,6.66498 -3.03201,13.45001 -2.961,20.28198c-26.88303,20.60797 20.18698,-25.79498 26.39297,-22.05798c3.77002,5.63995 1.009,21.00098 8.86603,18.58698c-3.04202,2.18103 -5.97202,4.52704 -9.12701,6.54102c-1.03601,0.66205 1.83701,-1.63098 2.73999,-2.46295c3.86502,-3.55603 7.72003,-7.14203 11.474,-10.81488c6.12299,-5.99115 27.255,-33.4032 34.88501,-27.40686c2.159,8.39096 2.62799,17.13092 3.71698,25.71399l-12.04095,7.8739c-0.53802,-8.44922 -0.94604,-17.0542 -3.20404,-25.23889c26.88,-24.35309 -31.38699,33.08499 -38.504,35.83087c-9.56097,0.46402 -6.34998,-13.11911 -10.14398,-19.9151c23.62802,-22.40607 -18.18399,20.47192 -25.245,23.48114c-5.09302,-3.73822 -0.065,-15.18396 0.96698,-22.41592l12.18402,-7.99902l0,0.00201l0,-0.00003l0,-0.00003l0,-0.00003l0,-0.00003l0,-0.00003l0,-0.00003l0,-0.00003l0,-0.00003l0,-0.00003z"/>
   <path id="svg_9" d="m479.77002,450.52002c8.91595,6.87598 -9.64001,13.86597 1.47198,3.76697c22.02197,-20.99097 13.26001,-2.01196 27.90198,3.90302c-14.60999,10.93597 -10.948,8.26099 -5.83899,3.51599l12.67499,-6.737c-5.24298,4.91602 -10.55798,10.71204 -17.47101,12.93701c-10.521,-5.09302 -17.23499,-16.56299 -4.87695,-20.104c-7.21802,6.32501 -20.23804,24.513 -26.04602,10.71698l12.18402,-7.99799l0,-0.00098z"/>
   <path id="svg_10" d="m534.63,448.52002l0.47601,0.323l-11.12903,9.33997l-0.13,0.14301l10.78302,-9.80597l0,0z"/>
   <path id="svg_11" d="m534.52002,447.5c3.37695,0.20898 6.78296,0.78497 10.12799,1.43701l-10.875,9.35901c-3.29901,-0.60101 -6.68298,-1.33502 -10.03601,-0.98999l10.78302,-9.80603l0,0z"/>
   <path id="svg_12" fill="#ffc400" d="m167.26001,209.44a45.625,43.125 0 1 1 0.22,-0.10901"/>
   <path id="svg_13" fill-opacity="0.69006" fill="#2698d2" d="m105.31599,339.55499l638.549,-70.30499l12.21002,119.76901l-638.549,70.30496l-12.21001,-119.76898l-0.00002,0l0.00001,0z"/>
   <path id="svg_14" opacity="0.66102" fill-rule="evenodd" fill="#19914c" d="m738.51001,224.82001l-91.08899,11.09198l-33.28802,14.56802l-11.14001,14.87299l10.01001,5.711l20.302,6.276l26.013,-3.733l33.005,-9.423l41.56097,-15.9359l4.62604,-23.42899l0,0.00101l0,-0.00003l0,-0.00003l0,-0.00003l0,-0.00002z"/>
   <path id="svg_15" opacity="0.71186" fill-rule="evenodd" fill="#19914c" d="m726.27002,231.82999l-50.896,76.354l-10.61902,34.75l4.034,18.13901l10.85199,-3.87799l17.98303,-11.32101l14.10498,-22.17398l14.341,-31.18402l14.96802,-41.91901l-14.76904,-18.767l0.00104,0z"/>
   <path id="svg_16" opacity="0.68362" fill-rule="evenodd" fill="#19914c" d="m741.15002,230.20001l-65.56201,-64.20203l-32.16998,-16.89398l-18.57306,0.59201l1.79303,11.384l7.78101,19.77402l19.16498,17.98097l27.97504,19.88802l38.40601,22.5l21.185,-11.02298l0,0l0,-0.00002l0,-0.00002z"/>
   <path id="svg_17" fill-rule="evenodd" fill="#6a6a6a" d="m173.31,323.95001l5.948,4.957l14.18399,-1.56302l3.42001,-6.07001l-23.509,2.82101"/>
   <path id="svg_18" fill-rule="evenodd" fill="#6a6a6a" d="m179.26001,323.67001l-0.427,-2.82101l4.189,-1.28201l1.06401,-0.15399l0.38902,2.034l1.70998,0l0.34201,1.28302l-7.267,0.94l0,0l-0.00002,0z"/>
   <path id="svg_19" fill-rule="evenodd" fill="#6a6a6a" d="m187.32999,323.10999l-1.539,-8.63397l1.11203,-0.17102l1.45297,8.89001l-1.026,-0.08502l0,0z"/>
  </g>
  <g fill="#000" stroke-width="0" stroke="#000" font-size="9pt" fill-rule="evenodd" stroke-linecap="round" id="svg_24" transform="rotate(-20 292.825 224.876)" opacity="0.75">
   <path d="m159.39999,236.55099l0.15001,-0.95001a21.665,21.665 0 0 1 -4.57701,1.367a18.184,18.184 0 0 1 -3.17299,0.28299a24.488,24.488 0 0 1 -5.108,-0.511a19.082,19.082 0 0 1 -4.742,-1.664q-4.25,-2.17499 -6.59999,-6.17499a16.987,16.987 0 0 1 -2.164,-6.42201a21.67,21.67 0 0 1 -0.18599,-2.87801a33.233,33.233 0 0 1 0.70001,-6.96899a26.084,26.084 0 0 1 2.10001,-6.10599a22.557,22.557 0 0 1 4.138,-5.905a20.231,20.231 0 0 1 3.58699,-2.895q4.925,-3.125 11.02501,-3.125q5.84999,0 8.77499,2.72502a9.05,9.05 0 0 1 2.847,5.79599a12.61,12.61 0 0 1 0.07799,1.429q0,2.95001 -1.07501,4.72501a3.971,3.971 0 0 1 -0.892,1.04601q-0.901,0.72899 -2.183,0.72899a4.577,4.577 0 0 1 -0.90201,-0.084q-0.744,-0.14998 -1.27299,-0.56598a2.111,2.111 0 0 1 -0.81401,-1.55098a2.987,2.987 0 0 1 -0.01099,-0.24902q0,-0.49199 0.194,-1.66101a35.495,35.495 0 0 1 0.006,-0.03899q0.27101,-1.261 0.298,-2.035a4.764,4.764 0 0 0 0.002,-0.16498q0,-2.10002 -1.27501,-3.25a3.661,3.661 0 0 0 -1.13899,-0.67801q-1.07001,-0.41699 -2.692,-0.46599a14.658,14.658 0 0 0 -0.444,-0.00601q-3.65001,0 -6.77501,2.10002a12.928,12.928 0 0 0 -3.27898,3.22501a17.896,17.896 0 0 0 -1.746,3.05a20.078,20.078 0 0 0 -1.42499,4.59299q-0.408,2.15402 -0.46501,4.617a34.954,34.954 0 0 0 -0.00998,0.81499q0,6 3.27498,9.27498a10.53,10.53 0 0 0 4.53401,2.625q2.181,0.65002 4.94101,0.65002a17.174,17.174 0 0 0 4.42299,-0.604a22.239,22.239 0 0 0 2.77701,-0.946l0.70001,-6.10002l-5.10002,0a4.657,4.657 0 0 1 -0.83,-0.07001q-0.46201,-0.08299 -0.82599,-0.26901a2.274,2.274 0 0 1 -0.49399,-0.336q-0.57002,-0.51399 -0.707,-1.534a5.224,5.224 0 0 1 -0.043,-0.69099a4.223,4.223 0 0 1 0.08899,-0.892q0.16899,-0.78299 0.66101,-1.308a2.491,2.491 0 0 1 1.545,-0.772a3.502,3.502 0 0 1 0.455,-0.028l9.35002,0a2.737,2.737 0 0 1 0.935,0.15399a2.399,2.399 0 0 1 0.89,0.571q0.72499,0.72502 0.575,2.07501q-0.14499,1.55099 -0.94901,6.90999a703.95801,703.95801 0 0 1 -0.05099,0.34001l-0.55,3.79999a195.541,195.541 0 0 1 3.597,-2.63698a141.804,141.804 0 0 1 2.78801,-1.94702a40.972,40.972 0 0 1 1.53799,-9.54799a38.471,38.471 0 0 1 0.27699,-0.918a4.842,4.842 0 0 1 0.41901,-0.979a3.327,3.327 0 0 1 1.056,-1.146a3.601,3.601 0 0 1 0.96901,-0.43701q0.808,-0.23799 1.90599,-0.23799a8.007,8.007 0 0 1 0.01401,0q0.772,0.00099 1.18399,0.153a1.099,1.099 0 0 1 0.20201,0.097q0.32701,0.203 0.38701,0.70599a2.049,2.049 0 0 1 0.013,0.244q0,0.8 -0.75,3.60001q-0.5,2 -0.79999,3.5a25.166,25.166 0 0 0 -0.20999,1.22299q-0.16501,1.10201 -0.29001,2.47701a37.905,37.905 0 0 1 1.29401,-3q0.756,-1.554 1.582,-2.82599a19.642,19.642 0 0 1 0.82399,-1.17401a21.479,21.479 0 0 1 1.401,-1.67299q0.737,-0.789 1.46399,-1.373a9.49,9.49 0 0 1 1.16,-0.804a10.368,10.368 0 0 1 1.31998,-0.655q0.74501,-0.302 1.438,-0.42a5.169,5.169 0 0 1 0.867,-0.07501q2.57898,0 3.112,2.04599a4.788,4.788 0 0 1 0.138,1.20401a3.791,3.791 0 0 1 -0.01501,0.308q-0.069,0.81001 -0.43498,2.84201a67.886,67.886 0 0 0 -0.13501,0.69702q-0.196,1.03601 -0.24698,1.52699a2.814,2.814 0 0 0 -0.01802,0.27599a3.63,3.63 0 0 0 0.048,0.61601q0.192,1.10501 1.15198,1.13301a1.732,1.732 0 0 0 0.05,0.00101a2.448,2.448 0 0 0 0.90201,-0.194a4.978,4.978 0 0 0 0.257,-0.11499a14.468,14.468 0 0 1 1.241,-3.866a12.196,12.196 0 0 1 2.662,-3.64a11.512,11.512 0 0 1 1.36301,-1.08499a10.123,10.123 0 0 1 5.825,-1.75a7.927,7.927 0 0 1 2.01401,0.24199a5.766,5.766 0 0 1 2.636,1.483a5.73,5.73 0 0 1 1.59601,3.03101a8.34,8.34 0 0 1 0.15399,1.644a8.071,8.071 0 0 1 -2.39798,5.847a9.972,9.972 0 0 1 -0.07701,0.078q-2.31099,2.311 -7.61098,3.729a38.718,38.718 0 0 1 -0.76402,0.196q1.16101,2.13498 4.26199,2.28798a9.944,9.944 0 0 0 0.48801,0.01201a7.807,7.807 0 0 0 1.93199,-0.26004q0.88199,-0.226 1.84299,-0.64699a17.197,17.197 0 0 0 1.35002,-0.668a16.926,16.926 0 0 0 3.04901,-2.13199a13.948,13.948 0 0 1 -0.12399,-1.94302q0,-3.45 1.45,-6.42499a12.196,12.196 0 0 1 2.662,-3.64a11.512,11.512 0 0 1 1.36301,-1.08499q2.57501,-1.75 5.82501,-1.75a7.927,7.927 0 0 1 2.01401,0.24199a5.766,5.766 0 0 1 2.636,1.483a5.73,5.73 0 0 1 1.59601,3.03102a8.34,8.34 0 0 1 0.15399,1.644a8.071,8.071 0 0 1 -2.39798,5.847a9.972,9.972 0 0 1 -0.07701,0.078q-2.31099,2.31099 -7.61101,3.72899a38.718,38.718 0 0 1 -0.76399,0.196q1.161,2.13498 4.26199,2.28798a9.944,9.944 0 0 0 0.48801,0.01202a7.807,7.807 0 0 0 1.93201,-0.26003q0.88199,-0.226 1.843,-0.64699a17.197,17.197 0 0 0 1.34999,-0.668q2.875,-1.57501 4.97501,-4.125a2.382,2.382 0 0 1 0.42102,-0.392a1.569,1.569 0 0 1 0.40999,-0.218a31.783,31.783 0 0 1 -0.131,-3.04001q0,-2.20001 0.15001,-4.45001l-1.95001,0a6.388,6.388 0 0 1 -0.679,-0.034q-0.68599,-0.07301 -1.08299,-0.31001a1.233,1.233 0 0 1 -0.263,-0.20598q-0.52501,-0.55 -0.52501,-1.75a5.116,5.116 0 0 1 0.093,-1.022q0.321,-1.56699 1.75201,-1.75298a3.146,3.146 0 0 1 0.40497,-0.02502l2.85002,0q0.85001,-5.5 2.60001,-10.04999q1.47299,-3.828 3.45799,-6.347a15.944,15.944 0 0 1 0.767,-0.903a10.19,10.19 0 0 1 1.66501,-1.48199q1.74599,-1.218 3.65999,-1.218q2.10002,0 3.3,1.85001a7.132,7.132 0 0 1 0.95398,2.30699q0.246,1.07402 0.246,2.343a16.914,16.914 0 0 1 -4.713,11.74901a23.765,23.765 0 0 1 -1.787,1.75099l5.60002,0a2.884,2.884 0 0 1 0.40999,0.02701q0.479,0.06799 0.731,0.31401a0.871,0.871 0 0 1 0.00899,0.00899a0.94,0.94 0 0 1 0.198,0.30699q0.11903,0.284 0.145,0.726a4.476,4.476 0 0 1 0.007,0.26701q0,3.28699 -5.13101,3.44199a17.235,17.235 0 0 1 -0.51901,0.00801l-6.10001,0q-0.076,1.914 -0.09399,3.183a50.97,50.97 0 0 0 -0.006,0.71701a35.003,35.003 0 0 0 0.07701,2.40602q0.23,3.319 1.14798,4.89401a3.993,3.993 0 0 0 2.85799,2.01299a5.72,5.72 0 0 0 1.01701,0.08702q2.14998,0 3.79999,-1.29999a17.85,17.85 0 0 0 1.09001,-0.94q0.59299,-0.55 1.24701,-1.235a46.045,46.045 0 0 0 0.23099,-0.244a23.287,23.287 0 0 1 0.05,-0.879q0.06499,-0.882 0.192,-1.901a58.086,58.086 0 0 1 0.31499,-2.17598a57.57,57.57 0 0 1 0.84599,-4.22101a48.361,48.361 0 0 1 0.629,-2.354a7.851,7.851 0 0 1 0.27704,-0.821q0.33496,-0.825 0.78601,-1.25899a2.023,2.023 0 0 1 0.13693,-0.12001a2.258,2.258 0 0 1 0.65604,-0.354q0.68701,-0.24599 1.74402,-0.24599q2.54999,0 2.54999,1.7a6.916,6.916 0 0 1 -0.04297,0.68901q-0.16101,1.53801 -0.90701,5.11101a121.544,121.544 0 0 0 -0.46701,2.23599q-0.604,3.041 -0.70999,4.61101a9.017,9.017 0 0 0 -0.02301,0.603a9.088,9.088 0 0 0 0.03601,0.82899q0.077,0.83601 0.32101,1.37901a2.488,2.488 0 0 0 0.043,0.092q0.39999,0.8 1.34998,0.8q0.89999,0 2.25,-1.25a21.313,21.313 0 0 0 0.83102,-0.81801q0.43198,-0.44702 0.92999,-0.99901a64.35,64.35 0 0 0 0.64499,-0.729a40.972,40.972 0 0 1 1.56702,-10.53601a38.471,38.471 0 0 1 0.27698,-0.918a4.842,4.842 0 0 1 0.41901,-0.97899a3.327,3.327 0 0 1 1.056,-1.14601a3.601,3.601 0 0 1 0.96899,-0.437q0.80798,-0.23799 1.90601,-0.23799a8.007,8.007 0 0 1 0.01401,0q0.772,0.00099 1.18399,0.153a1.099,1.099 0 0 1 0.202,0.097q0.32703,0.20299 0.38699,0.70598a2.049,2.049 0 0 1 0.01303,0.244q0,0.8 -0.75003,3.60001q-0.5,2 -0.79999,3.5a25.166,25.166 0 0 0 -0.21002,1.22299q-0.16498,1.10202 -0.28998,2.47702a37.905,37.905 0 0 1 1.29401,-3q0.75601,-1.554 1.582,-2.82599a19.642,19.642 0 0 1 0.82404,-1.17401a21.479,21.479 0 0 1 1.401,-1.67299q0.737,-0.789 1.46399,-1.373a9.49,9.49 0 0 1 1.15997,-0.804a10.368,10.368 0 0 1 1.32001,-0.655q0.745,-0.302 1.43802,-0.42001a5.169,5.169 0 0 1 0.86697,-0.075q2.57901,0 3.112,2.04599a4.788,4.788 0 0 1 0.138,1.20401a11.799,11.799 0 0 1 -0.06403,1.129q-0.202,2.056 -1.03598,5.92102q-0.95001,4.34999 -0.95001,5.75q0,1.95499 1.38602,1.99899a2.034,2.034 0 0 0 0.06403,0.00101a2.098,2.098 0 0 0 0.73196,-0.145q0.62402,-0.233 1.36099,-0.838a9.282,9.282 0 0 0 0.28201,-0.242a18.687,18.687 0 0 0 0.84702,-0.81a34.753,34.753 0 0 0 0.88098,-0.92801a16.255,16.255 0 0 1 1.84705,-7.26199a16.256,16.256 0 0 1 3.29297,-4.416a15.134,15.134 0 0 1 1.63202,-1.334a12.007,12.007 0 0 1 3.42499,-1.713a10.541,10.541 0 0 1 3.10001,-0.46201q0.86801,0 1.285,0.26401a0.884,0.884 0 0 1 0.19,0.161a1.67,1.67 0 0 1 0.21201,0.311q0.23804,0.44 0.41299,1.21399a8.785,8.785 0 0 1 0.957,-0.144q0.48895,-0.048 1.03796,-0.05499a15.164,15.164 0 0 1 0.20505,-0.00101a6.659,6.659 0 0 1 0.57999,0.02298q0.59299,0.052 0.96298,0.21901a1.374,1.374 0 0 1 0.23203,0.13301a1.063,1.063 0 0 1 0.349,0.442q0.16202,0.36301 0.17502,0.931a4.4,4.4 0 0 1 0.00104,0.10201a11.757,11.757 0 0 1 -0.00403,0.34999q-0.01001,0.321 -0.03897,0.548a3.17,3.17 0 0 1 -0.00702,0.05199a43.954,43.954 0 0 1 -0.10397,0.748q-0.29199,1.983 -1.14603,7.10202a274.94501,274.94501 0 0 0 -0.20596,1.256a354.94101,354.94101 0 0 0 -0.21902,1.369a1753.20398,1753.20398 0 0 0 -0.23099,1.46799a2085.479,2085.479 0 0 0 -0.24402,1.55701a114.479,114.479 0 0 1 4.46701,-3.31598a92.288,92.288 0 0 1 2.172,-1.485a68.188,68.188 0 0 0 0.60901,-0.832q0.60498,-0.84299 1.07199,-1.564a28.761,28.761 0 0 0 0.13,-0.203a31.396,31.396 0 0 0 0.56094,-1.002q0.63904,-1.18701 1.414,-2.821a97.173,97.173 0 0 0 0.02499,-0.052q1.14996,-2.42499 2.25,-5.02501a3.417,3.417 0 0 1 2.45398,-2.03401q0.67001,-0.166 1.49603,-0.166q1.39996,0 1.94995,0.25a1.124,1.124 0 0 1 0.27902,0.17401a0.791,0.791 0 0 1 0.27103,0.625a1.394,1.394 0 0 1 -0.01404,0.18501q-0.026,0.194 -0.10095,0.47301a8.434,8.434 0 0 1 -0.08502,0.293a7.058,7.058 0 0 1 -0.42401,1.056a8.036,8.036 0 0 1 -0.12601,0.244a11.706,11.706 0 0 0 -0.474,1.071q-0.422,1.11 -0.42502,1.96399a3.499,3.499 0 0 0 -0.00101,0.015q0,0.75 0.52502,1.64998q0.52499,0.89999 1.625,2.25a48.227,48.227 0 0 1 1.00897,1.369q0.875,1.23799 1.41602,2.20599q0.82501,1.47501 0.82501,3.22501q0,0.5 -0.10001,1.39999q2.45001,-0.95001 5.75,-5.05a2.382,2.382 0 0 1 0.42099,-0.392a1.569,1.569 0 0 1 0.92902,-0.308a1.113,1.113 0 0 1 0.875,0.39601a1.582,1.582 0 0 1 0.14999,0.20398q0.28598,0.457 0.35397,1.17499a5.04,5.04 0 0 1 0.02103,0.47499a6.212,6.212 0 0 1 -0.13901,1.35202q-0.21698,0.97502 -0.77399,1.70099a3.971,3.971 0 0 1 -0.03705,0.04701a24.344,24.344 0 0 1 -1.54004,1.74399q-1.66992,1.707 -3.23499,2.481q-1.97205,0.97501 -4.754,1.18001a19.983,19.983 0 0 1 -0.871,0.045q-2,1.70001 -4.75,1.70001a9.042,9.042 0 0 1 -1.505,-0.11801q-0.81,-0.13698 -1.45593,-0.43401a4.192,4.192 0 0 1 -1.01404,-0.64799a4.71,4.71 0 0 1 -0.78198,-0.86098a3.17,3.17 0 0 1 -0.59302,-1.839a3.069,3.069 0 0 1 0.92099,-2.22101a3.901,3.901 0 0 1 0.02899,-0.02899a3.016,3.016 0 0 1 1.242,-0.735q0.47598,-0.151 1.05298,-0.196a6.501,6.501 0 0 1 0.505,-0.019a8.298,8.298 0 0 1 0.56601,0.01999q0.43997,0.03 0.95895,0.10501a91.369,91.369 0 0 0 0.41101,0.05699q0.577,0.08 0.914,0.118q-0.05002,-1.29999 -0.57501,-2.45a12.17,12.17 0 0 0 -1.22598,-2.091a13.438,13.438 0 0 0 -0.099,-0.13399a36.779,36.779 0 0 0 -0.72803,-0.948q-0.39996,-0.50201 -0.77197,-0.927a42.382,42.382 0 0 1 -1.25497,2.23099q-0.914,1.511 -1.82001,2.66901q-1.52499,1.95001 -3.32498,3.70001a3.679,3.679 0 0 1 -0.62604,0.50998q-0.47101,0.298 -0.96597,0.36801a2.19,2.19 0 0 1 -0.30801,0.022a1.807,1.807 0 0 1 -0.65292,-0.114a1.621,1.621 0 0 1 -0.25201,-0.12503a431.39499,431.39499 0 0 0 -0.24399,0.168q-0.80298,0.552 -1.401,0.97101l-3.20001,2.14999a93.726,93.726 0 0 1 -1.30197,6.03601q-0.77301,3.05899 -1.68301,5.60199a37.514,37.514 0 0 1 -1.98999,4.63701a16.306,16.306 0 0 1 -1.69601,2.66101q-2.603,3.26401 -6.129,3.26401a6.73,6.73 0 0 1 -1.91501,-0.26001a5.266,5.266 0 0 1 -2.23499,-1.315a5.288,5.288 0 0 1 -1.543,-3.203a7.331,7.331 0 0 1 -0.05701,-0.92197a10.506,10.506 0 0 1 0.61099,-3.429q0.69696,-2.02403 2.18903,-4.196a23.402,23.402 0 0 1 1.96298,-2.44099q3.00299,-3.308 8.53699,-7.584l0.30002,-1.95q-0.85001,1.34999 -2.22501,2.075a6.545,6.545 0 0 1 -1.36798,0.543a5.257,5.257 0 0 1 -1.35706,0.18202a6.889,6.889 0 0 1 -2.35199,-0.386a5.93,5.93 0 0 1 -2.59796,-1.864a7.85,7.85 0 0 1 -0.71103,-1.039a23.98,23.98 0 0 1 -0.05603,0.05098a19.825,19.825 0 0 1 -1.95801,1.53799q-2.47501,1.7 -5.625,1.7q-1.95401,0 -3.17401,-0.86699a3.933,3.933 0 0 1 -0.67593,-0.608a4.754,4.754 0 0 1 -0.94299,-1.707q-0.23102,-0.715 -0.31201,-1.58298a10.586,10.586 0 0 1 -0.04498,-0.985q0,-1.298 0.60199,-4.48503a93.886,93.886 0 0 1 0.09799,-0.51497q0.61401,-2.97601 0.64801,-4.211a5.057,5.057 0 0 0 0.00198,-0.13902a1.723,1.723 0 0 0 -0.01999,-0.282q-0.08701,-0.51802 -0.53,-0.51802a0.78,0.78 0 0 0 -0.37006,0.11101q-0.47998,0.26399 -1.15692,1.15599a13.349,13.349 0 0 0 -0.29803,0.40799a18.511,18.511 0 0 0 -0.888,1.40701q-0.44299,0.77101 -0.89301,1.68999a40.649,40.649 0 0 0 -0.61902,1.328q-1.22504,2.75 -1.97501,5.8a17.81,17.81 0 0 1 -0.285,1.07898q-0.30899,1.02298 -0.66394,1.634a2.934,2.934 0 0 1 -0.32605,0.46199q-0.60394,0.687 -1.78104,0.80199a5.101,5.101 0 0 1 -0.49399,0.02301a2.752,2.752 0 0 1 -1.28601,-0.29201q-0.604,-0.31299 -1.01801,-0.96399a4.228,4.228 0 0 1 -0.37097,-0.744a8.404,8.404 0 0 1 -0.36203,-1.25699a16.7,16.7 0 0 1 -2.32098,1.82202q-2.24799,1.435 -4.34201,1.435a7.203,7.203 0 0 1 -1.85693,-0.22502a4.735,4.735 0 0 1 -2.86803,-2.075a8.557,8.557 0 0 1 -0.655,-1.26602a22.531,22.531 0 0 1 -0.64499,0.569a19.283,19.283 0 0 1 -1.72502,1.29701q-2.54999,1.7 -5.85002,1.7q-6.41898,0 -8.799,-5.685a17.744,17.744 0 0 1 -0.19099,-0.50002a3.375,3.375 0 0 1 -0.11002,0.13501q-1.59999,1.946 -4.34299,3.631a26.816,26.816 0 0 1 -0.882,0.519q-3.375,1.90001 -7.22501,1.90001a15.547,15.547 0 0 1 -3.26199,-0.32201q-2.082,-0.44701 -3.653,-1.515a8.901,8.901 0 0 1 -1.235,-1.013a9.433,9.433 0 0 1 -1.04199,-1.23a14.498,14.498 0 0 1 -0.03702,0.02898q-1.03198,0.845 -2.31398,1.632a26.816,26.816 0 0 1 -0.88199,0.519q-3.375,1.90001 -7.22502,1.90001a15.547,15.547 0 0 1 -3.26198,-0.32201q-2.08203,-0.44702 -3.65303,-1.51501a8.901,8.901 0 0 1 -1.23499,-1.01299a9.433,9.433 0 0 1 -2.60902,-4.87802a13.948,13.948 0 0 1 -0.02698,-0.13301a8.165,8.165 0 0 1 -3.114,0.61101q-1.85199,0 -3.082,-0.65999a4.113,4.113 0 0 1 -0.94302,-0.68999a4.491,4.491 0 0 1 -1.265,-2.42999a6.515,6.515 0 0 1 -0.11,-1.22q0,-0.75 0.15002,-1.5q0.09998,-1 0.09998,-1.35001a1.723,1.723 0 0 0 -0.01999,-0.28201q-0.08699,-0.51802 -0.53,-0.51802q-0.75,0 -1.97499,1.675a16.497,16.497 0 0 0 -0.91501,1.407q-0.45099,0.77101 -0.899,1.69a35.046,35.046 0 0 0 -0.61098,1.32799q-1.20001,2.75 -1.95001,5.8a17.81,17.81 0 0 1 -0.28499,1.07899q-0.30902,1.02299 -0.664,1.634a2.934,2.934 0 0 1 -0.32599,0.46199q-0.60399,0.68701 -1.78102,0.802a5.101,5.101 0 0 1 -0.49399,0.02301a2.752,2.752 0 0 1 -1.28601,-0.29202q-0.60399,-0.31299 -1.01802,-0.96399a4.228,4.228 0 0 1 -0.371,-0.74399a8.404,8.404 0 0 1 -0.37398,-1.315a16.324,16.324 0 0 1 -0.24002,-1.57202a457.67401,457.67401 0 0 0 -1.362,0.92102q-2.353,1.599 -5.672,3.88699a1700.41797,1700.41797 0 0 0 -0.47701,0.32901a94.513,94.513 0 0 1 -1.33099,6.03899q-0.79201,3.07898 -1.72,5.63997a38.093,38.093 0 0 1 -1.99901,4.621a16.478,16.478 0 0 1 -1.70799,2.67203q-1.103,1.38303 -2.369,2.18201a6.93,6.93 0 0 1 -3.77298,1.09601a6.73,6.73 0 0 1 -1.91501,-0.26001a5.266,5.266 0 0 1 -2.235,-1.315q-1.59999,-1.57501 -1.59999,-4.12497q0,-2.35002 1.05,-4.75003q1.03998,-2.37599 3.86699,-5.48599a42.846,42.846 0 0 1 0.058,-0.064a41.254,41.254 0 0 1 2.25801,-2.272q1.211,-1.13501 2.67798,-2.36699a98.879,98.879 0 0 1 3.18901,-2.561l-0.00003,-0.00003l-0.00003,0l0,-0.00002zm204.74103,-7.50601a12.816,12.816 0 0 0 2.05899,-0.19899a40.972,40.972 0 0 0 0,0.00499q0,4.40002 0.77499,6.40002a4.228,4.228 0 0 0 0.371,0.74399q0.41397,0.651 1.01797,0.96399a2.752,2.752 0 0 0 1.28601,0.29202a5.101,5.101 0 0 0 0.49402,-0.02301q1.17697,-0.11499 1.78098,-0.802a2.934,2.934 0 0 0 0.32602,-0.46199q0.35501,-0.61101 0.66397,-1.634a17.81,17.81 0 0 0 0.28503,-1.07899q0.75,-3.04996 1.94998,-5.8a35.046,35.046 0 0 1 0.6109,-1.32799q0.44809,-0.91902 0.89911,-1.69a16.497,16.497 0 0 1 0.91501,-1.407q1.22498,-1.675 1.97498,-1.675q0.44299,0 0.53003,0.51802a1.723,1.723 0 0 1 0.01999,0.28201q0,0.35001 -0.10001,1.35001q-0.14999,0.75 -0.14999,1.5a6.515,6.515 0 0 0 0.11002,1.22a4.491,4.491 0 0 0 1.26498,2.42999a4.113,4.113 0 0 0 0.94299,0.68999q1.23001,0.66 3.082,0.66a8.165,8.165 0 0 0 3.112,-0.61102a12.277,12.277 0 0 0 0.83801,2.56099q1.09998,2.39999 3.22498,3.84999a8.035,8.035 0 0 0 2.586,1.15201a10.353,10.353 0 0 0 2.539,0.298a9.026,9.026 0 0 0 3.276,-0.59801a9.911,9.911 0 0 0 3.07401,-1.927a11.459,11.459 0 0 0 2.453,-3.15599a14.256,14.256 0 0 0 1.297,-3.569a26.153,26.153 0 0 0 2.20502,-0.18401a21.445,21.445 0 0 0 1.66,-0.27a40.972,40.972 0 0 0 -0.01501,1.304q0,4.40001 0.77499,6.40001a4.228,4.228 0 0 0 0.371,0.74399q0.414,0.651 1.01801,0.964a2.752,2.752 0 0 0 1.28601,0.29201a5.101,5.101 0 0 0 0.49399,-0.02301q1.177,-0.11499 1.78101,-0.802a2.934,2.934 0 0 0 0.32599,-0.46199q0.35501,-0.61101 0.664,-1.63399a17.81,17.81 0 0 0 0.285,-1.07898a40.378,40.378 0 0 1 0.259,-1.01602a45.228,45.228 0 0 1 1.466,-4.48398q0.672,-1.75 1.37399,-3.11003a18.66,18.66 0 0 1 0.85101,-1.48999a13.068,13.068 0 0 1 0.18295,-0.27899q0.71594,-1.05902 1.26703,-1.38101a0.902,0.902 0 0 1 0.44995,-0.14q0.44296,0 0.53006,0.51802a1.723,1.723 0 0 1 0.01999,0.28201a7.723,7.723 0 0 1 -0.00809,0.33098q-0.04901,1.12602 -0.392,3.86899a89.224,89.224 0 0 0 -0.15399,1.164q-0.22891,1.82402 -0.306,3.13199a20.577,20.577 0 0 0 -0.04001,1.20399a11.954,11.954 0 0 0 0.00299,0.261q0.04602,2.08099 0.82202,3.564a3.841,3.841 0 0 0 0.254,0.41902q0.80798,1.15602 2.22098,1.15602a5.373,5.373 0 0 0 0.64102,-0.037q1.11398,-0.13399 1.68399,-0.763a2.819,2.819 0 0 0 0.35599,-0.50699q0.50812,-0.89998 0.9191,-2.69299q0.75,-3.04999 1.94995,-5.79999q0.75,-1.71901 1.5,-3.01802a17.119,17.119 0 0 1 0.89996,-1.407q0.89099,-1.244 1.479,-1.56401a0.789,0.789 0 0 1 0.371,-0.11102q0.44299,0 0.53,0.51802a1.723,1.723 0 0 1 0.01999,0.28201a5.057,5.057 0 0 1 -0.00198,0.13901q-0.034,1.235 -0.64801,4.211a93.886,93.886 0 0 0 -0.09799,0.51498q-0.60202,3.187 -0.60202,4.48502a10.586,10.586 0 0 0 0.04501,0.985q0.08099,0.86801 0.31201,1.58299a4.754,4.754 0 0 0 0.94299,1.707a3.933,3.933 0 0 0 0.67599,0.60799q1.22,0.867 3.17401,0.867q3.14999,0 5.625,-1.70001a19.825,19.825 0 0 0 1.95798,-1.53798a23.98,23.98 0 0 0 2.66702,-2.81201q0.63898,-0.739 0.84799,-1.88498a6.766,6.766 0 0 0 0.10199,-1.21501a5.04,5.04 0 0 0 -0.021,-0.47499q-0.06799,-0.71799 -0.354,-1.17499a1.582,1.582 0 0 0 -0.14999,-0.20399a1.113,1.113 0 0 0 -0.875,-0.39601a1.569,1.569 0 0 0 -0.92899,0.30801a2.382,2.382 0 0 0 -0.42102,0.392q-2.29999,2.75 -3.67499,3.97502a9.282,9.282 0 0 1 -0.28201,0.24199q-0.737,0.60501 -1.36099,0.838a2.098,2.098 0 0 1 -0.73199,0.14499a2.034,2.034 0 0 1 -0.064,-0.00101q-1.38602,-0.04401 -1.38602,-1.99899q0,-1.40001 0.95001,-5.75q0.83398,-3.86501 1.03598,-5.92101a11.799,11.799 0 0 0 0.06403,-1.129a4.788,4.788 0 0 0 -0.138,-1.20401q-0.53302,-2.04599 -3.112,-2.04599a5.849,5.849 0 0 0 -2.12802,0.42598q-0.89999,0.35002 -1.84198,0.989a15.175,15.175 0 0 0 -1.73001,1.38503q-2.09601,1.925 -3.93301,5.43301a40.363,40.363 0 0 0 -1.61697,3.517a10.244,10.244 0 0 1 0.00098,-0.002q0.15002,-0.90001 0.54901,-2.69801q0.72,-3.183 0.89499,-4.87299a9.229,9.229 0 0 0 0.05502,-0.927a6.185,6.185 0 0 0 -0.04501,-0.77101q-0.13501,-1.07899 -0.67996,-1.679a1.807,1.807 0 0 0 -0.05005,-0.05399q-0.53192,-0.541 -1.56699,-0.69a6.042,6.042 0 0 0 -0.858,-0.056q-1.75,0 -3.72501,1.325a10.488,10.488 0 0 0 -0.91998,0.696q-0.76202,0.644 -1.509,1.49699a20.722,20.722 0 0 0 -1.42102,1.832a19.805,19.805 0 0 0 -0.26099,0.38501q-0.90399,1.37099 -1.68201,3.032a32.884,32.884 0 0 0 -1.28198,3.183a50.555,50.555 0 0 1 0.13498,-1.30499q0.073,-0.616 0.155,-1.16199a23.928,23.928 0 0 1 0.21002,-1.20802a58.633,58.633 0 0 1 0.20798,-0.974q0.24902,-1.12599 0.59201,-2.50099q0.75,-2.79999 0.75,-3.60001a2.049,2.049 0 0 0 -0.013,-0.244q-0.06,-0.50299 -0.38696,-0.70598a1.099,1.099 0 0 0 -0.20203,-0.097q-0.41202,-0.15201 -1.18402,-0.153a8.007,8.007 0 0 0 -0.01398,0q-1.09802,0 -1.90601,0.23799a3.601,3.601 0 0 0 -0.96899,0.437a3.327,3.327 0 0 0 -1.056,1.14601a4.842,4.842 0 0 0 -0.41901,0.97899a38.471,38.471 0 0 0 -0.27701,0.918a40.972,40.972 0 0 0 -1.052,4.72601a32.712,32.712 0 0 1 -2.08099,0.39499a21.544,21.544 0 0 1 -1.89001,0.211a13.829,13.829 0 0 0 -0.17288,-1.181a10.93,10.93 0 0 0 -2.552,-5.29401a7.491,7.491 0 0 0 -3.20602,-2.16701a8.907,8.907 0 0 0 -2.91898,-0.45799q-3.10007,0 -5.65002,1.675q-2.54999,1.67499 -4,4.64998a13.786,13.786 0 0 0 -1.04599,2.996a17.018,17.018 0 0 0 -0.202,1.07402a4.978,4.978 0 0 1 -0.25,0.11098a2.448,2.448 0 0 1 -0.90201,0.194a1.732,1.732 0 0 1 -0.05005,-0.00101q-0.95993,-0.028 -1.15204,-1.13301a3.63,3.63 0 0 1 -0.04791,-0.616a2.814,2.814 0 0 1 0.01801,-0.276q0.05099,-0.491 0.24698,-1.52699a67.886,67.886 0 0 1 0.13504,-0.69701q0.366,-2.032 0.43497,-2.84201a3.791,3.791 0 0 0 0.01501,-0.308a4.788,4.788 0 0 0 -0.138,-1.20401q-0.53299,-2.04599 -3.112,-2.04599a5.169,5.169 0 0 0 -0.867,0.07501q-0.69299,0.118 -1.43799,0.42a10.368,10.368 0 0 0 -1.32001,0.655a9.49,9.49 0 0 0 -1.16,0.804q-0.72699,0.584 -1.46399,1.373a21.479,21.479 0 0 0 -1.401,1.67299a19.642,19.642 0 0 0 -0.82401,1.17401q-0.82599,1.27199 -1.582,2.82599a37.905,37.905 0 0 0 -1.29401,3q0.125,-1.375 0.29001,-2.47702a25.166,25.166 0 0 1 0.20999,-1.22298q0.30002,-1.5 0.79999,-3.5q0.75003,-2.8 0.75003,-3.60002a2.049,2.049 0 0 0 -0.013,-0.244q-0.06,-0.50298 -0.38702,-0.70598a1.099,1.099 0 0 0 -0.20197,-0.097q-0.41202,-0.15201 -1.18402,-0.153a8.007,8.007 0 0 0 -0.01401,0q-1.09799,0 -1.90607,0.23799a3.601,3.601 0 0 0 -0.96893,0.43701a3.327,3.327 0 0 0 -1.056,1.146a4.842,4.842 0 0 0 -0.4191,0.979a38.471,38.471 0 0 0 -0.27701,0.918a40.972,40.972 0 0 0 -1.20398,5.75699a37.079,37.079 0 0 1 -2.15601,0.237a26.995,26.995 0 0 1 -2.11298,0.08801q-0.33701,0 -0.62701,-0.01602a7.57,7.57 0 0 1 -0.423,-0.03401a49.851,49.851 0 0 0 -0.634,-0.04201q-0.51001,-0.03001 -0.95892,-0.04399a24.829,24.829 0 0 0 -0.80704,-0.01402a0.887,0.887 0 0 0 -0.19904,0.02299q-0.47501,0.11002 -1.05096,0.72701a6.357,6.357 0 0 0 -0.30002,0.34599a7.025,7.025 0 0 0 -0.875,1.40401q-0.42902,0.90402 -0.42902,1.52299a1.656,1.656 0 0 0 0.004,0.12701a115.558,115.558 0 0 1 0.62302,2.98099a96.893,96.893 0 0 1 0.802,4.71901q0.52499,3.64999 0.52499,7.55a28.093,28.093 0 0 1 -0.03702,1.52299q-0.20099,3.67699 -1.46301,3.67699q-0.67499,0 -1.02896,-3.86301a58.058,58.058 0 0 1 -0.121,-1.56201q-0.35001,-5.42499 -0.35001,-10.57501a60.132,60.132 0 0 1 0.01999,-1.491q0.04199,-1.69101 0.17599,-3.60301a111.652,111.652 0 0 1 0.30399,-3.506a89.691,89.691 0 0 0 1.14902,-1.153q12.901,-13.188 12.901,-24.44699q0,-1.99701 -0.41901,-3.535a7.765,7.765 0 0 0 -0.90601,-2.11501a5.818,5.818 0 0 0 -0.242,-0.356q-1.29099,-1.74399 -3.43298,-1.74399a5.757,5.757 0 0 0 -1.35599,0.16101q-3.56601,0.86098 -6.61902,6.31401a40.282,40.282 0 0 0 -1.48599,2.939q-2.58398,5.65701 -4.21399,13.41101q-2.07501,9.875 -2.07501,19.47499a122.106,122.106 0 0 0 0.04401,3.32202q0.21301,7.83701 1.48108,12.07799a13.763,13.763 0 0 0 0.4859,1.37199q1.56201,3.728 4.6391,3.728a4.809,4.809 0 0 0 3.39899,-1.347a7.204,7.204 0 0 0 1.20102,-1.50299a8,8 0 0 0 0.06299,-0.10399q1.68701,-2.84399 1.68701,-8.14601a36.434,36.434 0 0 0 -0.04498,-1.75099q-0.09402,-1.938 -0.38,-4.474a84.735,84.735 0 0 0 -0.48102,-3.60699a64.518,64.518 0 0 0 -0.59399,-3.26801a39.447,39.447 0 0 0 0.729,0.138q1.14099,0.20601 1.96301,0.276a9.071,9.071 0 0 0 0.758,0.036a18.428,18.428 0 0 0 0.44101,-0.006zm-0.69104,-34.09398a0.817,0.817 0 0 0 -0.49197,0.20201q-0.74902,0.584 -1.733,2.84802q-1.32501,3.04999 -2.625,8.075q-1.29999,5.02498 -2.25,10.625a39.214,39.214 0 0 0 4.23297,-5.76001a32.877,32.877 0 0 0 1.91702,-3.71501a29.122,29.122 0 0 0 1.47998,-4.18999q0.69202,-2.61699 0.72003,-5.03499a11.373,11.373 0 0 0 -0.03601,-0.95901q-0.17801,-2.09099 -1.21402,-2.09099l0,-0.00003zm-60.79999,31.84999l1.60001,-8.54999a5.646,5.646 0 0 0 -3.069,1.01099a7.493,7.493 0 0 0 -0.73102,0.56401a9.907,9.907 0 0 0 -1.99197,2.41699a12.821,12.821 0 0 0 -0.80801,1.608q-1.04999,2.5 -1.04999,5.3a6.165,6.165 0 0 0 0.04999,0.808q0.125,0.944 0.56802,1.48201a1.928,1.928 0 0 0 0.00699,0.00999a2.043,2.043 0 0 0 1.39297,0.731a2.926,2.926 0 0 0 0.33203,0.019a2.057,2.057 0 0 0 1.08997,-0.328q0.56903,-0.35001 1.11002,-1.07201a6.359,6.359 0 0 0 0.729,-1.27699q0.28,-0.64101 0.48898,-1.422a14.822,14.822 0 0 0 0.28201,-1.30101zm96.60001,-7.84999l-0.25,0a3.686,3.686 0 0 0 -2.758,1.222a5.697,5.697 0 0 0 -0.56702,0.703a6.643,6.643 0 0 0 -0.87,1.864q-0.45505,1.50999 -0.45505,3.56099a11.28,11.28 0 0 0 0.10306,1.573q0.22891,1.62402 0.97189,2.62701a4.423,4.423 0 0 0 0.70901,0.76399a2.765,2.765 0 0 0 1.81601,0.686a3.544,3.544 0 0 0 2.513,-1.032a4.863,4.863 0 0 0 0.26199,-0.26802q1.17499,-1.3 1.57498,-3.75q-1.54999,-1.05 -2.375,-2.75q-0.82498,-1.70001 -0.82498,-3.60002q0,-0.79999 0.14999,-1.59999l0.00003,0.00003l0.00003,0l0.00003,0zm-151.45,-20.79999a0.809,0.809 0 0 0 -0.45699,0.16298q-0.50201,0.34601 -1.07301,1.42801a11.748,11.748 0 0 0 -0.14499,0.28401a15.686,15.686 0 0 0 -0.56801,1.31299q-0.57399,1.494 -1.106,3.586a51.159,51.159 0 0 0 -0.07599,0.30099a61.004,61.004 0 0 0 -0.75601,3.506a79.5,79.5 0 0 0 -0.61899,3.869a18.339,18.339 0 0 0 2.98401,-3.24899a15.688,15.688 0 0 0 1.44098,-2.476q1.18599,-2.55101 1.41902,-4.731a9.826,9.826 0 0 0 0.05597,-1.04401a12.085,12.085 0 0 0 -0.032,-0.927q-0.157,-2.02298 -1.06799,-2.02298zm46.99998,56.75a1.403,1.403 0 0 0 0.771,-0.265q0.94702,-0.62602 2.05402,-2.735q1.31,-2.49501 2.53302,-7.444a88.634,88.634 0 0 0 0.49197,-2.106q-3.80698,3.263 -5.51199,5.89102a13.723,13.723 0 0 0 -0.03799,0.05899a14.746,14.746 0 0 0 -0.8869,1.573q-0.81305,1.69403 -0.81305,3.07701a3.655,3.655 0 0 0 0.04599,0.595q0.05405,0.32399 0.16995,0.59001a1.978,1.978 0 0 0 0.10901,0.215a1.075,1.075 0 0 0 0.78799,0.52699a1.729,1.729 0 0 0 0.28699,0.02301l0,-0.00003zm-142.19998,0a1.5,1.5 0 0 0 0.82701,-0.28099q0.862,-0.57002 1.82201,-2.29701a17.793,17.793 0 0 0 0.201,-0.37198a17.412,17.412 0 0 0 0.85701,-1.94501q0.81598,-2.166 1.573,-5.40901a84.472,84.472 0 0 0 0.47,-2.14601a45.396,45.396 0 0 0 -2.16702,1.97q-2.12099,2.06599 -3.26999,3.84599a13.449,13.449 0 0 0 -0.03798,0.05901a14.495,14.495 0 0 0 -0.88199,1.57701q-0.384,0.81 -0.582,1.54999a5.8,5.8 0 0 0 -0.21101,1.498q0,1.91499 1.35101,1.94899a1.957,1.957 0 0 0 0.04901,0.00102l-0.00003,0l-0.00003,0zm106.69598,-44.58601a7.239,7.239 0 0 0 1.15399,0.08601a6.467,6.467 0 0 0 1.39304,-0.14201a4.426,4.426 0 0 0 2.05698,-1.03299q1.30002,-1.17499 1.30002,-3.17499q0,-1.64998 -1.15002,-2.54999a3.75,3.75 0 0 0 -0.24298,-0.17601q-0.64102,-0.423 -1.474,-0.59901a6.204,6.204 0 0 0 -1.28302,-0.125a6.496,6.496 0 0 0 -0.80798,0.04901a4.862,4.862 0 0 0 -2.617,1.12602a4.713,4.713 0 0 0 -0.20599,0.187a3.657,3.657 0 0 0 -1.16901,2.73802a4.785,4.785 0 0 0 0.103,1.01799a3.191,3.191 0 0 0 0.94702,1.707a3.149,3.149 0 0 0 0.88397,0.57201q0.49301,0.216 1.112,0.317l0,-0.00003l0,-0.00003zm-59.04604,15.636l0,0.09999q2.30899,-0.54799 3.85202,-1.52498a7.894,7.894 0 0 0 0.79799,-0.57501a5.42,5.42 0 0 0 0.968,-1.01601a3.75,3.75 0 0 0 0.73201,-2.23399a2.789,2.789 0 0 0 -0.073,-0.659a1.939,1.939 0 0 0 -0.45201,-0.86601a1.731,1.731 0 0 0 -1.04901,-0.54799a2.472,2.472 0 0 0 -0.37601,-0.02701q-1.84999,0 -3.125,2.15001q-1.27499,2.14999 -1.27499,5.2zm19.64999,0l0,0.09999q2.30901,-0.54799 3.85201,-1.52498a7.894,7.894 0 0 0 0.798,-0.57501a5.42,5.42 0 0 0 0.968,-1.01601a3.75,3.75 0 0 0 0.73198,-2.23399a2.789,2.789 0 0 0 -0.073,-0.659a1.939,1.939 0 0 0 -0.45201,-0.86601a1.731,1.731 0 0 0 -1.04901,-0.54799a2.472,2.472 0 0 0 -0.37598,-0.02701q-1.85002,0 -3.125,2.15001q-1.27502,2.14999 -1.27502,5.2l0.00003,0z" id="svg_21"/>
  </g>
  <g transform="rotate(-20 413.152 263.036)" id="svg_22" fill="none" stroke-width="0.25mm" stroke="#000" font-size="9pt" fill-rule="evenodd" stroke-linecap="round">
   <path d="m504.08301,242.784l0,4.395l22.77802,0q1.71399,0 2.74097,0.75301a3.213,3.213 0 0 1 0.84802,0.93098q0.78101,1.283 0.96698,4.22301a31.832,31.832 0 0 1 0.05902,2.00301a31.607,31.607 0 0 1 -0.06104,2.03001q-0.12097,1.87799 -0.48798,3.065a4.707,4.707 0 0 1 -0.47699,1.09399q-1.02502,1.64798 -3.58899,1.64798l-22.77802,0l0,32.51901l20.58099,0a7.983,7.983 0 0 1 1.01996,0.06097q0.51001,0.06601 0.92706,0.203a3.229,3.229 0 0 1 0.76294,0.35901a2.774,2.774 0 0 1 0.75403,0.75q0.40997,0.59 0.67401,1.48401q0.47601,1.61102 0.47601,4.68701q0,2.66599 -0.35699,4.23196a7.517,7.517 0 0 1 -0.11902,0.45599a6.028,6.028 0 0 1 -0.32397,0.866q-0.20898,0.44199 -0.47205,0.76599a2.506,2.506 0 0 1 -0.63202,0.565a3.395,3.395 0 0 1 -0.84698,0.36301q-0.41296,0.11801 -0.91296,0.17401a8.616,8.616 0 0 1 -0.95001,0.04898l-52.29504,0q-1.11395,0 -1.90399,-0.23499a3.359,3.359 0 0 1 -0.80597,-0.35101q-0.72595,-0.44699 -1.17499,-1.48999a6.308,6.308 0 0 1 -0.25299,-0.707q-0.47601,-1.612 -0.47601,-4.68799q0,-2.66602 0.35699,-4.23102a7.517,7.517 0 0 1 0.11902,-0.45599q0.31097,-1.05499 0.82703,-1.686a2.651,2.651 0 0 1 0.60095,-0.548q0.68903,-0.45099 1.80103,-0.57501a8.19,8.19 0 0 1 0.90894,-0.04797l13.40305,0l0,-32.51898l-13.40305,0a6.219,6.219 0 0 1 -1.31995,-0.13101q-1.53204,-0.33298 -2.26904,-1.51697a4.741,4.741 0 0 1 -0.48395,-1.11801q-0.36401,-1.19 -0.48303,-3.07001a31.731,31.731 0 0 1 -0.05798,-2.00099a31.709,31.709 0 0 1 0.06003,-2.032q0.125,-1.93701 0.51001,-3.15103a4.794,4.794 0 0 1 0.45496,-1.043q1.02606,-1.68399 3.58899,-1.68399l13.40302,0l0,-5.347q0,-9.379 3.17706,-15.668a21.343,21.343 0 0 1 3.52496,-5.06a21.537,21.537 0 0 1 10.08899,-5.931q4.18005,-1.173 9.35706,-1.173a62.48,62.48 0 0 1 20.52597,3.548a71.31,71.31 0 0 1 1.73999,0.627a7.575,7.575 0 0 1 1.24396,0.571q0.7251,0.422 1.23199,0.974a4.417,4.417 0 0 1 0.27002,0.32202a4.207,4.207 0 0 1 0.68701,1.42q0.16394,0.58499 0.21094,1.28a8.428,8.428 0 0 1 0.01807,0.56a12.392,12.392 0 0 1 -0.112,1.599q-0.10901,0.832 -0.32306,1.769a26.188,26.188 0 0 1 -0.29797,1.173q-0.78497,2.877 -1.89093,4.295a5.111,5.111 0 0 1 -0.26904,0.319a4.504,4.504 0 0 1 -1.20099,0.94501a3.867,3.867 0 0 1 -1.83893,0.44699q-0.6391,0 -1.47003,-0.194a11.733,11.733 0 0 1 -0.65405,-0.173a77.335,77.335 0 0 0 -6.64697,-1.73999q-3.28998,-0.698 -6.22198,-0.959a38.199,38.199 0 0 0 -3.39099,-0.157a10.324,10.324 0 0 0 -4.24405,0.808q-4.40698,1.97 -5.08197,8.74399a26.336,26.336 0 0 0 -0.12201,2.606l-0.00003,0zm116.96802,4.614l0,48.04701l5.63898,0q1.11395,0 1.90497,0.23599a3.359,3.359 0 0 1 0.80505,0.35001q0.72699,0.44699 1.17596,1.491a6.308,6.308 0 0 1 0.25299,0.707q0.47601,1.61099 0.47601,4.68701q0,2.66599 -0.35797,4.23196a7.517,7.517 0 0 1 -0.11804,0.45602q-0.31201,1.05402 -0.82697,1.685a2.651,2.651 0 0 1 -0.60199,0.54797q-0.68903,0.45102 -1.79999,0.57498a8.19,8.19 0 0 1 -0.91003,0.048l-16.40601,0q-2.48999,0 -3.552,-1.06198a3.068,3.068 0 0 1 -0.66803,-1.04803q-0.36896,-0.92496 -0.39294,-2.31494a11.3,11.3 0 0 1 -0.00098,-0.18903l0,-10.62003a46.51,46.51 0 0 1 -5.64905,7.95303q-7.98401,8.892 -18.521,8.892a25.64,25.64 0 0 1 -6.25299,-0.73203a20.68,20.68 0 0 1 -5.42902,-2.19699q-5.01703,-2.92999 -7.72699,-8.31299a24.809,24.809 0 0 1 -2.263,-7.05103a33.383,33.383 0 0 1 -0.44696,-5.58398l0,-30.39502l-5.64008,0a7.983,7.983 0 0 1 -1.01996,-0.06097q-0.50897,-0.06601 -0.927,-0.203a3.229,3.229 0 0 1 -0.763,-0.35901a2.774,2.774 0 0 1 -0.75299,-0.75q-0.41101,-0.59 -0.67505,-1.48398q-0.47595,-1.61099 -0.47595,-4.68701q0,-2.666 0.35699,-4.23201a7.517,7.517 0 0 1 0.11896,-0.45598a6.028,6.028 0 0 1 0.32507,-0.86601q0.20795,-0.44101 0.47095,-0.76601a2.506,2.506 0 0 1 0.63202,-0.565a3.395,3.395 0 0 1 0.84698,-0.36299q0.414,-0.118 0.914,-0.174a8.616,8.616 0 0 1 0.94897,-0.04901l19.33606,0q2.48993,0 3.55194,1.06201a3.068,3.068 0 0 1 0.66803,1.04799q0.37,0.925 0.39301,2.315a11.3,11.3 0 0 1 0.00104,0.189l0,36.47502a26.46,26.46 0 0 0 0.17493,3.14697q0.40503,3.37701 1.75604,5.42502a7.864,7.864 0 0 0 0.047,0.07098q1.86597,2.76501 6.08197,2.92001a13.854,13.854 0 0 0 0.51001,0.009a10.477,10.477 0 0 0 5.38605,-1.53a15.361,15.361 0 0 0 2.66998,-2.02203a22.11,22.11 0 0 0 3.81,-4.74896a30.331,30.331 0 0 0 2.30597,-4.73602a34.539,34.539 0 0 0 2.30505,-12.24997a39.139,39.139 0 0 0 0.00195,-0.42102l0,-11.93802l-7.83698,0a7.983,7.983 0 0 1 -1.02002,-0.06097q-0.50903,-0.06601 -0.927,-0.20297a3.229,3.229 0 0 1 -0.763,-0.35901a2.774,2.774 0 0 1 -0.75299,-0.75q-0.41101,-0.59001 -0.67499,-1.48401q-0.47601,-1.61099 -0.47601,-4.687q0,-2.666 0.35803,-4.23201a7.517,7.517 0 0 1 0.11798,-0.45599a6.028,6.028 0 0 1 0.32501,-0.866q0.20795,-0.44101 0.47101,-0.76601a2.506,2.506 0 0 1 0.63196,-0.565a3.395,3.395 0 0 1 0.84705,-0.36299q0.414,-0.118 0.914,-0.174a8.616,8.616 0 0 1 0.94897,-0.04901l21.53302,0q2.49097,0 3.55298,1.06201a3.068,3.068 0 0 1 0.66699,1.04799q0.37,0.925 0.39301,2.315a11.3,11.3 0 0 1 0.00201,0.189l0,0.00002zm-212.47601,41.089l0,6.95801l21.021,0a7.983,7.983 0 0 1 1.01999,0.06097q0.509,0.06601 0.927,0.203a3.229,3.229 0 0 1 0.763,0.35901a2.774,2.774 0 0 1 0.75302,0.75q0.41098,0.59 0.67499,1.48401q0.47601,1.61102 0.47601,4.68701q0,2.66599 -0.35803,4.23199a7.517,7.517 0 0 1 -0.11798,0.45599a6.028,6.028 0 0 1 -0.32501,0.866q-0.20801,0.44199 -0.47098,0.76599a2.506,2.506 0 0 1 -0.63202,0.565a3.395,3.395 0 0 1 -0.84702,0.36301q-0.414,0.11801 -0.914,0.17401a8.616,8.616 0 0 1 -0.94897,0.04898l-50.09802,0q-1.11398,0 -1.90399,-0.23502a3.359,3.359 0 0 1 -0.806,-0.35098q-0.72601,-0.44699 -1.17499,-1.48999a6.308,6.308 0 0 1 -0.25302,-0.707q-0.47598,-1.612 -0.47598,-4.68799q0,-2.66605 0.35699,-4.23105a7.517,7.517 0 0 1 0.11899,-0.45596q0.31104,-1.05499 0.82703,-1.686a2.651,2.651 0 0 1 0.60098,-0.548q0.68903,-0.45099 1.80099,-0.57501a8.19,8.19 0 0 1 0.909,-0.04797l10.76703,0l0,-37.64603l-8.57001,0q-1.11401,0 -1.90402,-0.23499a3.359,3.359 0 0 1 -0.806,-0.35098q-0.72598,-0.44702 -1.17499,-1.49002a6.308,6.308 0 0 1 -0.25299,-0.707q-0.47601,-1.612 -0.47601,-4.68799q0,-2.666 0.358,-4.23199a7.517,7.517 0 0 1 0.11801,-0.455q0.31201,-1.05501 0.827,-1.68599a2.651,2.651 0 0 1 0.60098,-0.548q0.69,-0.451 1.80099,-0.575a8.19,8.19 0 0 1 0.90903,-0.048l20.069,0q2.48999,0 3.55197,1.06201a3.068,3.068 0 0 1 0.66803,1.04799q0.36899,0.925 0.392,2.315a11.3,11.3 0 0 1 0.00198,0.189l0,15.89401a64.485,64.485 0 0 1 4.73502,-7.82501q2.85199,-3.998 6.056,-6.95399a36.235,36.235 0 0 1 1.84299,-1.59099a29.866,29.866 0 0 1 5.38199,-3.50299q4.50601,-2.246 9.08304,-2.246q6.22598,0 11.71896,4.101a8.235,8.235 0 0 1 2.05701,2.101a7.17,7.17 0 0 1 1.16602,4.052a11.058,11.058 0 0 1 -0.20099,2.022q-0.314,1.68199 -1.11697,3.69101q-0.91205,2.27899 -1.98105,3.78699a9.827,9.827 0 0 1 -0.98596,1.19299q-1.302,1.33099 -2.71802,1.60999a3.921,3.921 0 0 1 -0.76102,0.07501a4.137,4.137 0 0 1 -1.09598,-0.15598q-0.53302,-0.14603 -1.10101,-0.42999a17.854,17.854 0 0 0 -5.91299,-2.07104a16.685,16.685 0 0 0 -2.58301,-0.19998a17.294,17.294 0 0 0 -9.698,2.99899a21.513,21.513 0 0 0 -0.849,0.59a23.782,23.782 0 0 0 -5.996,6.47302a30.252,30.252 0 0 0 -1.87799,3.41501q-2.96597,6.29898 -2.96597,14.06198l-0.00003,-0.00003zm-145.01901,-42.7l0,23.511a4.297,4.297 0 0 1 -0.25198,1.51199q-0.42102,1.12601 -1.54303,1.80402a4.994,4.994 0 0 1 -0.439,0.23599q-1.79498,0.853 -5.50497,1.021a42.831,42.831 0 0 1 -1.92902,0.04099a40.296,40.296 0 0 1 -1.905,-0.04199q-2.09201,-0.099 -3.405,-0.43399q-1.83301,-0.46698 -2.57199,-1.392a2.445,2.445 0 0 1 -0.02902,-0.03601q-0.57098,-0.74298 -0.69699,-1.97699a7.251,7.251 0 0 1 -0.035,-0.733a11.351,11.351 0 0 0 -1.50101,-5.71301q-1.50198,-2.63699 -4.46799,-4.211a13.02,13.02 0 0 0 -3.66299,-1.263q-1.569,-0.302 -3.362,-0.31201a21.985,21.985 0 0 0 -0.116,0a20.381,20.381 0 0 0 -4.87201,0.55902a16.318,16.318 0 0 0 -4.35699,1.74799a15.526,15.526 0 0 0 -6.116,6.59201a19.928,19.928 0 0 0 -1.88101,6.04602a26.017,26.017 0 0 0 -0.27899,3.87799q0,5.63998 2.16,9.92398a15.526,15.526 0 0 0 6.116,6.59201q3.95499,2.30701 9.229,2.30701a37.685,37.685 0 0 0 9.151,-1.16202a43.884,43.884 0 0 0 2.38397,-0.66898a55.964,55.964 0 0 0 11.46301,-5.05304a7.013,7.013 0 0 1 0.91901,-0.43198q0.79401,-0.30099 1.49799,-0.30099q3.29602,0 5.78601,5.78601a22.39,22.39 0 0 1 0.72299,1.965q0.595,1.90598 0.595,3.38199a5.281,5.281 0 0 1 -1.95798,4.242a7.644,7.644 0 0 1 -1.19101,0.81201a66.129,66.129 0 0 1 -14.319,5.93198q-7.50699,2.12402 -15.05099,2.12402a46.245,46.245 0 0 1 -10.30301,-1.10001a36.498,36.498 0 0 1 -9.25299,-3.44101q-8.423,-4.54099 -13,-12.59702a35.263,35.263 0 0 1 -4.41602,-14.53296a43.353,43.353 0 0 1 -0.16199,-3.77802a39.018,39.018 0 0 1 1.54198,-11.134a34.027,34.027 0 0 1 3.07199,-7.21298a32.945,32.945 0 0 1 12.561,-12.59802a34.938,34.938 0 0 1 15.93802,-4.465a41.668,41.668 0 0 1 1.823,-0.039a25.583,25.583 0 0 1 6.43198,0.75499a16.082,16.082 0 0 1 10.341,7.81401l0,-3.955a4.522,4.522 0 0 1 0.229,-1.48q0.46802,-1.35902 1.89502,-2.07202a7.581,7.581 0 0 1 1.48697,-0.537q2.02902,-0.52498 5.32401,-0.52498a31.709,31.709 0 0 1 2.03203,0.06q1.93799,0.125 3.151,0.50999a4.794,4.794 0 0 1 1.043,0.45499q1.685,1.026 1.685,3.589l0,0.00002zm67.18698,-3.549a46.122,46.122 0 0 0 -10.13199,-1.065a48.285,48.285 0 0 0 -7.32498,0.536a36.959,36.959 0 0 0 -12.15701,4.005a31.781,31.781 0 0 0 -12.854,12.59798a34.214,34.214 0 0 0 -3.07901,7.47a39.918,39.918 0 0 0 -1.42599,10.84003a43.858,43.858 0 0 0 0.186,4.07498a35.597,35.597 0 0 0 4.319,14.23599a31.781,31.781 0 0 0 12.854,12.59702a35.976,35.976 0 0 0 9.35001,3.47601a46.122,46.122 0 0 0 10.13199,1.065a48.285,48.285 0 0 0 7.32501,-0.53601a36.959,36.959 0 0 0 12.15799,-4.005a31.781,31.781 0 0 0 12.854,-12.59702a34.214,34.214 0 0 0 3.07898,-7.47098a39.918,39.918 0 0 0 1.42502,-10.84a43.858,43.858 0 0 0 -0.186,-4.07501a35.597,35.597 0 0 0 -4.31799,-14.23502a31.781,31.781 0 0 0 -12.85397,-12.59799a35.976,35.976 0 0 0 -9.35101,-3.476l-0.00003,0.00002zm-10.13199,15.56097a20.316,20.316 0 0 0 -4.638,0.50702a15.849,15.849 0 0 0 -4.517,1.79999a15.25,15.25 0 0 0 -5.96899,6.55502a19.919,19.919 0 0 0 -1.74298,5.56097a26.909,26.909 0 0 0 -0.34503,4.39999q0,5.71298 2.08801,9.961a15.25,15.25 0 0 0 5.96899,6.55499a16.261,16.261 0 0 0 5.84402,2.05899a21.312,21.312 0 0 0 3.31097,0.24802a20.316,20.316 0 0 0 4.638,-0.50699a15.849,15.849 0 0 0 4.51801,-1.80002a15.25,15.25 0 0 0 5.96899,-6.55499a19.919,19.919 0 0 0 1.74301,-5.56097a26.909,26.909 0 0 0 0.34396,-4.39999q0,-5.71301 -2.08701,-9.961a15.25,15.25 0 0 0 -5.96899,-6.55502a16.261,16.261 0 0 0 -5.845,-2.05899a21.312,21.312 0 0 0 -3.31097,-0.24802z" id="svg_23" stroke-width="5" fill="url(#svg_27)" stroke="url(#svg_26)"/>
  </g>
 </g>
</svg>
