<svg width="180" height="135" viewBox="0 0 800 600" xmlns="http://www.w3.org/2000/svg">
 <g>
  <title>background</title>
  <rect fill="none" id="canvas_background" height="601.97901" width="801.97201" y="-1" x="-1"/>
 </g>
 <defs>
  <linearGradient y2="0.49" x2="0" y1="0.51" x1="0" id="svg_26">
   <stop offset="0" stop-color="#000000"/>
   <stop offset="1" stop-color="#333333"/>
  </linearGradient>
  <linearGradient id="svg_27" x1="0" y1="0.51" x2="0" y2="0.49">
   <stop stop-color="#ff3f3f" offset="0"/>
   <stop stop-color="#ff7a7a" offset="1"/>
  </linearGradient>
 </defs>
 <g>
  <title>Layer 1</title>
  <g id="svg_20">
   <path id="svg_1" stroke-width="0.375" stroke="#000" fill-opacity="0.69006" d="m23.517,161.761l679.54599,-77.305l44.41998,413.734l-679.54607,77.30499l-44.42,-413.73399l-0.0001,0l0.0001,0l0,0l0.0001,0z"/>
   <path id="svg_2" stroke-width="3.75" stroke-linejoin="bevel" stroke="#000" fill="#fff" d="m68.106,111.442l664.83998,-73.207l44.91302,407.88399l-664.84001,73.207l-44.91299,-407.88399l0,0z"/>
   <path id="svg_3" stroke-width="2.5" stroke-linejoin="bevel" stroke="#000" fill="#f3f3eb" d="m81.594,124.021l639.01598,-70.363l37.00104,336.028l-639.01602,70.36398l-37.001,-336.02898l0,0l0,0l0,0l0,0l0,0l0,0l0,0l0,0l0,0l0,0l0,0l0,0z"/>
   <path id="svg_4" d="m140.13,468.37c0.403,7.047 0.22499,14.12601 0.82799,21.164c-15.76699,16.18799 -2.92,3.76999 2.957,-9.836c15.75101,-27.02499 13.35701,-4.08701 13.222,9.75201c5.32001,6.44897 -14.87599,19.664 0.65501,0.92297c7.948,-9.03998 22.226,-28.98199 24.95299,-8.32397c-15.222,13.707 -11.401,5.37399 5.45001,-2.43903c10.76099,16.04202 -9.47501,23.29501 4.25099,6.98001c7.939,-8.521 22.159,-33.20099 26.87,-12.28799c-19.006,14.79001 8.32901,-8.03699 17.31401,-13.492c1.504,5.09201 0.96399,10.67801 1.20799,16.00101l-11.92799,7.71701c-0.131,-4.81201 -0.151,-9.64001 -0.334,-14.44c25.97699,-19.70801 -12.149,15.789 -18.04201,12.418c-3.603,-16.15802 16.571,-22.422 -3.224,-2.41c-8.603,10.58499 -23.70599,29.241 -27.804,7.86398c27.59201,-22.54498 -3.438,9.22302 -5.685,1.91202c-1.752,-15.11801 15.05701,-23.34399 -0.81599,-6.19901c-5.04601,6.28699 -22.408,29.16 -24.70801,13.35199c0.472,-16.866 -1.452,-18.65601 12.505,-28.71899c1.243,-0.896 -3.161,4.90701 -1.783,4.237c-3.052,7.38101 -19.388,37.38501 -26.946,24.789c-0.584,-6.96799 -0.255,-14.02399 -1.127,-20.96301l12.18401,-7.99899l0,0l0,0z"/>
   <path id="svg_5" d="m236.96001,486.23001c6.114,-12.49503 15.05699,-18.89001 24.92598,-24.026c11.12302,21.936 -10.22499,28.94998 3.52701,10.22198c15.95502,-15.41699 31.93301,-54.771 38.375,-11.905c8.86401,15.42502 -9.69699,27.26599 0.129,9.93201c13.72601,-13.715 13.68701,-13.17001 18.07901,0.30798l-11.75601,8.00702c-3.491,-11.233 -1.60098,-13.85001 5.94702,-15.31799c-6.80402,12.125 -24.20801,28.21597 -23.80801,4.61798c-0.71301,-5.02399 -1.09399,-10.17999 -2.41998,-15.09399c-0.31302,-1.15701 -3.20001,-2.03 -2.27103,-2.78799c21.86502,-17.85901 -7.46198,8.741 -10.577,15.73401c-10.13098,14.37097 -23.99399,29.64798 -26.778,4.81598c19.424,-15.948 2.97701,-0.95499 -0.60999,8.48102l-12.76401,7.013l0.00101,0l0,0l0,0l0,0l0,0l0,0l0,0l0,0l0,0l0,0l0,0l0,0l0,0l0,0z"/>
   <path id="svg_6" d="m341.97,460.54999c-0.96799,3.492 -0.57101,7.358 0.061,9.85602c0.746,-0.146 1.37698,-0.58701 2.07199,-0.883l-10.396,9.936c-0.88599,0.06299 -1.85101,0.754 -2.77301,0.19897c-2.26898,-3.58099 -2.32999,-6.70798 -1.14899,-11.10898l12.18399,-7.99902l0.00101,0z"/>
   <path id="svg_7" d="m354.5,462.26001c5.271,8.659 10.47101,0.26498 -4.39099,10.91299l12.53299,-6.71201c-12.34201,9.492 -12.97299,14.082 -20.327,3.797l12.18399,-7.99799l0.00101,0z"/>
   <path id="svg_8" d="m386.48001,444.32999c-1.50302,6.66501 -3.03201,13.45001 -2.961,20.28201c-26.88303,20.608 20.18698,-25.79501 26.39297,-22.05801c3.77002,5.64001 1.009,21.00101 8.86603,18.58701c-3.04202,2.181 -5.97202,4.52701 -9.12701,6.54102c-1.03601,0.66199 1.83701,-1.63101 2.73999,-2.46301c3.86502,-3.556 7.72,-7.142 11.474,-10.815c6.12302,-5.991 27.255,-33.40298 34.88501,-27.40698c2.159,8.39099 2.62799,17.13098 3.71701,25.71399l-12.04102,7.87399c-0.53799,-8.44901 -0.94598,-17.05399 -3.20401,-25.23898c26.88,-24.353 -31.38699,33.08499 -38.504,35.83099c-9.56097,0.46399 -6.34998,-13.11899 -10.14398,-19.91501c23.62799,-22.40601 -18.18399,20.47202 -25.245,23.48102c-5.09302,-3.73801 -0.065,-15.18402 0.96698,-22.41602l12.18402,-7.99899l0,0.00198l0,0l0,0l0,0l0,0l0,0l0,0l0,0l0,0l0,0l0,0l0,0l0,0z"/>
   <path id="svg_9" d="m479.76999,450.51999c8.91602,6.87601 -9.63998,13.866 1.47202,3.767c22.022,-20.991 13.26001,-2.01199 27.90201,3.90302c-14.61002,10.936 -10.948,8.26099 -5.83902,3.51599l12.67499,-6.737c-5.24298,4.91602 -10.55798,10.71201 -17.47098,12.93701c-10.521,-5.09302 -17.23502,-16.56302 -4.87701,-20.104c-7.21799,6.32501 -20.23798,24.513 -26.04599,10.71701l12.18399,-7.99802l0,-0.00101z"/>
   <path id="svg_10" d="m534.63,448.51999l0.47601,0.323l-11.12903,9.34003l-0.13,0.14297l10.78302,-9.806l0,0z"/>
   <path id="svg_11" d="m534.52002,447.5c3.37695,0.20901 6.78296,0.785 10.12799,1.43701l-10.875,9.35898c-3.29901,-0.60098 -6.68298,-1.33499 -10.03601,-0.98999l10.78302,-9.806l0,0z"/>
   <path id="svg_12" fill="#ffc400" d="m167.25999,209.44a45.625,43.125 0 1 1 0.22,-0.10901"/>
   <path id="svg_13" fill-opacity="0.69006" fill="#2698d2" d="m105.316,339.55499l638.54899,-70.30499l12.21002,119.76901l-638.54901,70.30499l-12.21,-119.76901l0,0l0,0z"/>
   <path id="svg_14" opacity="0.66102" fill-rule="evenodd" fill="#19914c" d="m738.51001,224.82001l-91.08899,11.092l-33.28802,14.56799l-11.14001,14.873l10.01001,5.711l20.302,6.276l26.013,-3.733l33.005,-9.423l41.56097,-15.93599l4.62604,-23.429l0,0.00101l0,0l0,0l0,0l0,0z"/>
   <path id="svg_15" opacity="0.71186" fill-rule="evenodd" fill="#19914c" d="m726.27002,231.83l-50.896,76.35399l-10.61902,34.75l4.034,18.13901l10.85199,-3.87799l17.98303,-11.32101l14.10498,-22.17398l14.341,-31.18402l14.96802,-41.91899l-14.76904,-18.767l0.00104,0z"/>
   <path id="svg_16" opacity="0.68362" fill-rule="evenodd" fill="#19914c" d="m741.15002,230.2l-65.56201,-64.202l-32.16998,-16.894l-18.57306,0.592l1.79303,11.384l7.78101,19.774l19.16498,17.981l27.97504,19.888l38.40601,22.5l21.185,-11.02301l0,0l0,0l0,0z"/>
   <path id="svg_17" fill-rule="evenodd" fill="#6a6a6a" d="m173.31,323.95001l5.948,4.957l14.18401,-1.56302l3.42,-6.07001l-23.509,2.82101"/>
   <path id="svg_18" fill-rule="evenodd" fill="#6a6a6a" d="m179.25999,323.67001l-0.427,-2.82101l4.18901,-1.28201l1.064,-0.15399l0.38901,2.034l1.70999,0l0.342,1.28302l-7.267,0.94l0,0l0,0z"/>
   <path id="svg_19" fill-rule="evenodd" fill="#6a6a6a" d="m187.33,323.10999l-1.539,-8.63397l1.112,-0.17102l1.453,8.89001l-1.026,-0.08502l0,0z"/>
  </g>
  <g fill="#000" stroke-width="0" stroke="#000" font-size="9pt" fill-rule="evenodd" stroke-linecap="round" id="svg_24" transform="rotate(-20 736.827 387.876)" opacity="0.75">
   <path d="m212.51486,105.51363a10.804,10.804 0 0 0 2.78702,0.33698q3.14099,0 6.513,-2.15199a25.051,25.051 0 0 0 3.47998,-2.734a12.606,12.606 0 0 0 0.54503,1.886q0.71799,1.85397 2.08199,2.562a4.128,4.128 0 0 0 1.92999,0.438a7.651,7.651 0 0 0 0.74001,-0.035q0.67398,-0.06502 1.222,-0.256a3.35,3.35 0 0 0 1.45102,-0.947a4.4,4.4 0 0 0 0.48701,-0.692q0.534,-0.91702 0.99602,-2.45099a26.716,26.716 0 0 0 0.42903,-1.619a60.567,60.567 0 0 1 0.38799,-1.524a67.841,67.841 0 0 1 2.19997,-6.72601q1.612,-4.19999 3.33704,-6.90001q1.24301,-1.94599 2.175,-2.49001a1.353,1.353 0 0 1 0.67502,-0.21a1.089,1.089 0 0 1 0.04494,0.00101q0.62306,0.02499 0.74902,0.776a2.584,2.584 0 0 1 0.03098,0.423q0,1.172 -0.36598,4.35799a198.295,198.295 0 0 1 -0.23398,1.942q-0.74997,5.40001 -0.74997,8.25q0,3.375 1.23798,5.737q0.70996,1.35701 1.82898,1.93399a4.045,4.045 0 0 0 1.883,0.429a8.06,8.06 0 0 0 0.961,-0.05401q0.66003,-0.07999 1.19202,-0.27499a3.293,3.293 0 0 0 1.33502,-0.87099q1.08704,-1.2 1.91196,-4.8q1.12503,-4.57501 2.92502,-8.70001a55.293,55.293 0 0 1 0.914,-1.991q1.34308,-2.772 2.68597,-4.647a20.457,20.457 0 0 1 0.45502,-0.61201q1.47205,-1.89999 2.32001,-1.89999a1.089,1.089 0 0 1 0.04498,0.00099q0.62311,0.02501 0.74902,0.776a2.584,2.584 0 0 1 0.03101,0.423a7.586,7.586 0 0 1 -0.00302,0.20901q-0.0379,1.39301 -0.56897,4.26199a101.346,101.346 0 0 1 -0.40305,2.05399a140.85201,140.85201 0 0 0 -0.14795,0.77299q-0.66605,3.53101 -0.84,5.51601a14.134,14.134 0 0 0 -0.06204,1.21099a15.879,15.879 0 0 0 0.06604,1.478q0.12195,1.302 0.46796,2.37402a7.131,7.131 0 0 0 1.41602,2.55998q1.32501,1.504 3.51712,1.98601a10.522,10.522 0 0 0 2.258,0.227a14.549,14.549 0 0 0 4.00998,-0.50399a92.025,92.025 0 0 0 -2.43503,6.24099a80.072,80.072 0 0 0 -1.33597,4.238q-0.97299,3.43102 -1.48206,6.52602a39.392,39.392 0 0 0 -0.55698,6.37399q0,5.175 1.95001,8.09999a6.216,6.216 0 0 0 3.56793,2.61002a8.837,8.837 0 0 0 2.43207,0.315a8.258,8.258 0 0 0 6.00598,-2.56201q1.30399,-1.29601 2.38995,-3.24799a25.774,25.774 0 0 0 1.72897,-3.903a61.321,61.321 0 0 0 1.48102,-4.81401q1.12097,-4.23 1.86502,-9.187a125.847,125.847 0 0 0 1.07898,-10.186a15.7,15.7 0 0 0 3.99698,-0.58301a17.914,17.914 0 0 0 4.92804,-2.26698q2.47498,2.84998 6.44995,2.84998q4.72504,0 8.43805,-2.55a29.737,29.737 0 0 0 2.935,-2.30699a35.97,35.97 0 0 0 1.05402,-0.98299a13.814,13.814 0 0 0 3.66101,3.66499a12.052,12.052 0 0 0 3.87802,1.72801a15.529,15.529 0 0 0 3.80893,0.44699a13.54,13.54 0 0 0 4.91302,-0.896a14.866,14.866 0 0 0 4.612,-2.89201a17.189,17.189 0 0 0 3.67902,-4.733a21.385,21.385 0 0 0 1.94598,-5.354a39.229,39.229 0 0 0 3.30698,-0.27502a32.168,32.168 0 0 0 2.49002,-0.40497a61.458,61.458 0 0 0 -0.02197,1.95499a64.289,64.289 0 0 0 0.039,2.28901q0.11395,3.187 0.56195,5.33898a12.606,12.606 0 0 0 0.56198,1.97203q0.71805,1.85397 2.082,2.562a4.128,4.128 0 0 0 1.92999,0.438a7.651,7.651 0 0 0 0.74002,-0.035q0.67401,-0.06503 1.22198,-0.256a3.35,3.35 0 0 0 1.45105,-0.947a4.4,4.4 0 0 0 0.48697,-0.692q0.534,-0.91701 0.99597,-2.45099a26.716,26.716 0 0 0 0.42902,-1.619q1.125,-4.575 2.92499,-8.7q1.80005,-4.12499 3.638,-6.638a19.624,19.624 0 0 1 0.25406,-0.34q1.16602,-1.52399 2.02893,-1.979a1.471,1.471 0 0 1 0.67905,-0.19299a1.089,1.089 0 0 1 0.04498,0.001q0.62302,0.02499 0.74902,0.77599a2.584,2.584 0 0 1 0.03101,0.423a5.219,5.219 0 0 1 -0.00305,0.15901q-0.01694,0.568 -0.14697,1.86599q-0.22498,1.12501 -0.22498,2.25002a9.773,9.773 0 0 0 0.164,1.83099a6.737,6.737 0 0 0 1.89899,3.644a6.17,6.17 0 0 0 1.41302,1.035q1.01996,0.547 2.32599,0.792a12.491,12.491 0 0 0 2.298,0.19801q3.14999,0 5.96298,-1.53801a22.67,22.67 0 0 0 0.21799,-0.121a20.242,20.242 0 0 0 4.694,-3.591a4.897,4.897 0 0 0 0.04898,-0.05199a47.674,47.674 0 0 0 0.10001,0.856q1.34503,10.21301 7.53,13.61801a15.118,15.118 0 0 0 7.39603,1.70299a18.629,18.629 0 0 0 0.91797,-0.02298a15.242,15.242 0 0 0 7.85699,-2.52701a28.925,28.925 0 0 0 2.58704,-1.94498a33.796,33.796 0 0 0 4.46298,-4.58002q0.95703,-1.10899 1.272,-2.82697a10.15,10.15 0 0 0 0.15302,-1.82301q0,-0.923 -0.19293,-1.61401a3.282,3.282 0 0 0 -0.36905,-0.861a2.374,2.374 0 0 0 -0.22598,-0.30599a1.669,1.669 0 0 0 -1.31198,-0.594q-1.125,0 -2.02502,1.05q-2.31998,2.681 -4.215,4.44101a26.775,26.775 0 0 1 -1.63501,1.409q-2.47504,1.95 -5.69995,1.95a8.581,8.581 0 0 1 -1.52701,-0.13a5.989,5.989 0 0 1 -4.285,-3.02a9.035,9.035 0 0 1 -0.72897,-1.63702q-0.75201,-2.20599 -0.99405,-5.70399a52.505,52.505 0 0 1 -0.11499,-3.609a76.457,76.457 0 0 1 0.00806,-1.075q0.02698,-1.90401 0.142,-4.77499l9.14996,0a25.852,25.852 0 0 0 0.77802,-0.012q7.69702,-0.23199 7.69702,-5.16298a6.714,6.714 0 0 0 -0.01102,-0.40001q-0.04001,-0.66301 -0.21808,-1.089a1.409,1.409 0 0 0 -0.29602,-0.46101a1.301,1.301 0 0 0 -0.01398,-0.01398q-0.379,-0.368 -1.09702,-0.47099a4.326,4.326 0 0 0 -0.61398,-0.04l-8.39996,0a35.648,35.648 0 0 0 2.67993,-2.627a25.371,25.371 0 0 0 7.07001,-17.62299a19.045,19.045 0 0 0 -0.00589,-0.471q-0.04007,-1.634 -0.36401,-3.043a10.698,10.698 0 0 0 -1.42999,-3.46101a7.824,7.824 0 0 0 -0.29599,-0.42599q-0.82404,-1.103 -1.90005,-1.688a5.669,5.669 0 0 0 -2.75394,-0.661q-4.27502,0 -7.987,4.05q-3.71304,4.05 -6.33801,10.875q-2.62503,6.82499 -3.90002,15.07498l-4.27499,0a4.719,4.719 0 0 0 -0.60901,0.03699q-2.14496,0.28 -2.62701,2.63a7.674,7.674 0 0 0 -0.13895,1.533a6.575,6.575 0 0 0 0.05896,0.909q0.15604,1.11599 0.72903,1.716q0.59296,0.62199 2.01794,0.77501a9.582,9.582 0 0 0 1.01904,0.05001l2.92499,0a100.332,100.332 0 0 0 -0.203,4.612a1.702,1.702 0 0 0 -0.397,-0.03701a2.252,2.252 0 0 0 -0.48599,0.053q-0.453,0.10001 -0.89096,0.38701a4.105,4.105 0 0 0 -0.64804,0.535q-2.32001,2.31998 -4.047,3.009a3.672,3.672 0 0 1 -1.353,0.291q-1.875,0 -1.875,-2.625a4.222,4.222 0 0 1 0.026,-0.41299q0.10001,-0.966 0.57401,-3.33701a156.297,156.297 0 0 0 0.08398,-0.47099q0.47302,-2.672 0.56702,-3.791a5.686,5.686 0 0 0 0.02399,-0.463q0,-3.79002 -2.94601,-4.63401a7.018,7.018 0 0 0 -1.92896,-0.241a7.753,7.753 0 0 0 -1.30099,0.11301q-1.04004,0.17699 -2.15701,0.62999a15.551,15.551 0 0 0 -1.97897,0.98202q-1.94504,1.132 -3.93695,3.26499a32.219,32.219 0 0 0 -2.10101,2.50999q-3.07498,4.05 -5.54996,10.49999a77.317,77.317 0 0 1 0.20197,-1.95999q0.23901,-2.04301 0.548,-3.59a83.804,83.804 0 0 1 0.31091,-1.48q0.16907,-0.77601 0.36905,-1.62601a150.853,150.853 0 0 1 0.51999,-2.144a98.469,98.469 0 0 0 0.37906,-1.45498q0.74594,-2.96799 0.74594,-3.94498a3.073,3.073 0 0 0 -0.02002,-0.36501q-0.03192,-0.266 -0.11392,-0.47701a1.156,1.156 0 0 0 -0.466,-0.58302q-0.44998,-0.28101 -1.40601,-0.35202a9.502,9.502 0 0 0 -0.69403,-0.02299q-2.77496,0 -4.31195,1.01201a4.99,4.99 0 0 0 -1.58502,1.71999a7.262,7.262 0 0 0 -0.62799,1.46799a57.707,57.707 0 0 0 -0.41702,1.37701a61.458,61.458 0 0 0 -1.577,7.08999a49.069,49.069 0 0 1 -3.12201,0.591a32.316,32.316 0 0 1 -2.83398,0.317q-0.60001,-5.77499 -4.08698,-9.713a11.236,11.236 0 0 0 -4.81006,-3.24901a13.361,13.361 0 0 0 -4.37799,-0.688q-4.64996,0 -8.47507,2.51199a16.211,16.211 0 0 0 -2.73593,2.26099a18.054,18.054 0 0 0 -3.26407,4.714a20.679,20.679 0 0 0 -1.57001,4.495a25.527,25.527 0 0 0 -0.60498,5.668a21.206,21.206 0 0 0 0.00299,0.327a18.415,18.415 0 0 0 0.20599,2.61501a65.321,65.321 0 0 1 -0.04401,0.047q-0.79498,0.841 -1.49896,1.50801a21.766,21.766 0 0 1 -1.36603,1.20298a9.448,9.448 0 0 1 -1.24701,0.85001a6.972,6.972 0 0 1 -3.47797,0.95001a6.313,6.313 0 0 1 -0.784,-0.05301q-0.423,-0.054 -0.90802,-0.16a15.463,15.463 0 0 1 -0.93301,-0.237q2.25003,-3.075 3.52502,-6.825q1.27496,-3.75002 1.27496,-7.72501a21.845,21.845 0 0 0 -0.00699,-0.57301q-0.134,-5.081 -2.65497,-8.27701a10.531,10.531 0 0 0 -0.60101,-0.69799a8.252,8.252 0 0 0 -6.26199,-2.677q-2.625,0 -4.95001,1.31201q-2.32501,1.313 -4.72501,4.313a10.751,10.751 0 0 1 -0.00299,-0.033q-0.05402,-0.672 -0.06702,-1.866a76.541,76.541 0 0 1 -0.00497,-0.87601q-0.05002,-1.24499 -0.38101,-1.945a1.758,1.758 0 0 0 -0.40598,-0.56799a1.766,1.766 0 0 0 -0.05701,-0.048q-0.508,-0.41801 -1.41605,-0.53899a6.157,6.157 0 0 0 -0.81497,-0.05a9.531,9.531 0 0 0 -1.93503,0.187a6.749,6.749 0 0 0 -2.565,1.08801a5.189,5.189 0 0 0 -0.15997,0.11801q-1.63699,1.256 -1.565,3.33199a139.83299,139.83299 0 0 1 0.04797,1.71902q0.07202,3.14799 0.09302,8.521a1263.18201,1263.18201 0 0 1 0.00903,4.98499a167.127,167.127 0 0 0 -1.078,1.826a87.454,87.454 0 0 1 -1.06699,1.19299q-0.76102,0.83501 -1.4231,1.50401a28.03,28.03 0 0 1 -1.26895,1.21399a13.923,13.923 0 0 1 -0.42401,0.36302q-1.10602,0.909 -2.04095,1.258a3.147,3.147 0 0 1 -1.09802,0.217a3.05,3.05 0 0 1 -0.09698,-0.002q-1.65399,-0.05202 -1.992,-1.922a6.095,6.095 0 0 1 -0.08603,-1.076a9.344,9.344 0 0 1 0.02805,-0.67599q0.12799,-1.744 0.84198,-5.306a156.94299,156.94299 0 0 1 0.55499,-2.64301a185.067,185.067 0 0 0 0.233,-1.096q1.04703,-5 1.32001,-7.785a17.698,17.698 0 0 0 0.09702,-1.69401q0,-3.79 -2.94604,-4.634a7.018,7.018 0 0 0 -1.92899,-0.241a8.774,8.774 0 0 0 -3.19296,0.63902q-1.35004,0.52602 -2.76199,1.48401a22.762,22.762 0 0 0 -2.595,2.077q-3.14502,2.88699 -5.90103,8.14999a60.545,60.545 0 0 0 -2.42395,5.27499q0.16898,-1.013 0.54797,-2.785a171.589,171.589 0 0 1 0.27698,-1.26501q1.08002,-4.77399 1.341,-7.30901a13.844,13.844 0 0 0 0.08401,-1.39099a9.277,9.277 0 0 0 -0.06799,-1.15601q-0.08704,-0.69199 -0.28604,-1.25301a3.705,3.705 0 0 0 -0.73297,-1.26601a2.711,2.711 0 0 0 -0.07602,-0.08098q-0.79898,-0.811 -2.35095,-1.035a9.063,9.063 0 0 0 -1.28601,-0.08401q-1.72299,0 -3.591,0.85603a14.271,14.271 0 0 0 -1.996,1.13098a15.732,15.732 0 0 0 -1.38095,1.04501q-2.24101,1.89201 -4.39401,4.993a29.707,29.707 0 0 0 -0.39197,0.578q-1.35707,2.056 -2.52301,4.548a49.326,49.326 0 0 0 -1.92303,4.774a75.832,75.832 0 0 1 0.202,-1.957q0.10902,-0.925 0.23204,-1.743a35.892,35.892 0 0 1 0.31595,-1.813a87.949,87.949 0 0 1 0.31105,-1.45901q0.16901,-0.769 0.36896,-1.614a163.411,163.411 0 0 1 0.52,-2.13902a98.469,98.469 0 0 0 0.37904,-1.45499q0.74596,-2.96799 0.74596,-3.94498a3.073,3.073 0 0 0 -0.01997,-0.36501q-0.032,-0.266 -0.114,-0.47701a1.156,1.156 0 0 0 -0.46597,-0.58302q-0.45001,-0.28099 -1.40601,-0.35201a9.502,9.502 0 0 0 -0.69403,-0.02301q-2.77499,0 -4.31204,1.01202a4.99,4.99 0 0 0 -1.58496,1.71999a7.262,7.262 0 0 0 -0.62801,1.46799a57.707,57.707 0 0 0 -0.41701,1.377a61.458,61.458 0 0 0 -2.34901,15.80401a96.524,96.524 0 0 1 -0.96901,1.09401q-1.52496,1.692 -2.63995,2.72498a14.046,14.046 0 0 1 -0.67,0.58401q-0.98802,0.80501 -1.795,1.10799a2.599,2.599 0 0 1 -0.91,0.18301a2.99,2.99 0 0 1 -0.40302,-0.02603q-0.60098,-0.08199 -1.02696,-0.42001a2.198,2.198 0 0 1 -0.59503,-0.75398q-0.422,-0.84399 -0.547,-2.207a13.632,13.632 0 0 1 -0.05299,-1.243a13.525,13.525 0 0 1 0.03398,-0.90401q0.21304,-3.154 1.76599,-10.27101q1.42503,-6.82499 1.42503,-8.69999a3.219,3.219 0 0 0 -0.00497,-0.18502q-0.10901,-1.88599 -2.47206,-2.26801a8.488,8.488 0 0 0 -1.34795,-0.097q-1.58601,0 -2.617,0.369a3.387,3.387 0 0 0 -0.98305,0.53101a3.035,3.035 0 0 0 -0.20595,0.18099q-0.67705,0.65 -1.179,1.887a11.776,11.776 0 0 0 -0.41499,1.23199a72.542,72.542 0 0 0 -0.94402,3.53101a86.356,86.356 0 0 0 -1.26801,6.33099a87.128,87.128 0 0 0 -0.474,3.26402q-0.19,1.52898 -0.28702,2.85199a34.931,34.931 0 0 0 -0.10202,2.54699a26.55,26.55 0 0 0 0.06403,1.87902q0.31302,4.40898 2.14902,7.27099a7.102,7.102 0 0 0 4.29996,3.11302l-0.00006,0.00005l-0.00006,-0.00003l-0.00009,0.00006zm63.83707,26.88699a1.322,1.322 0 0 0 0.99899,-0.58601q1.27402,-1.564 2.22897,-7.30399a73.379,73.379 0 0 0 0.147,-0.92302a126.131,126.131 0 0 0 0.87503,-7.21599q0.616,-6.51801 0.84998,-14.72099a120.643,120.643 0 0 0 -3.354,8.66798a97.341,97.341 0 0 0 -1.74597,5.65701a66.962,66.962 0 0 0 -1.06702,4.43502q-0.42902,2.11898 -0.63098,3.97298a28.537,28.537 0 0 0 -0.177,3.06701q0,2.22198 0.48199,3.48001a4.276,4.276 0 0 0 0.08096,0.19499q0.41202,0.936 0.92603,1.18501a0.875,0.875 0 0 0 0.38602,0.09l0,-0.00002zm14.32495,-33.75a9.073,9.073 0 0 0 3.36603,-1.547a12.28,12.28 0 0 0 1.62201,-1.416a16.198,16.198 0 0 0 2.702,-3.78a20.059,20.059 0 0 0 0.935,-2.07q1.35001,-3.48701 1.35001,-7.312q0,-2.25 -0.8999,-3.41299a2.848,2.848 0 0 0 -2.06802,-1.147a3.626,3.626 0 0 0 -0.33197,-0.015a3.513,3.513 0 0 0 -1.702,0.502q-1.93213,1.078 -4.3201,4.466a38.85,38.85 0 0 0 -0.50299,0.73199a208.73801,208.73801 0 0 0 -0.03302,1.842q-0.02893,2.09801 -0.0379,5.01299a909.32202,909.32202 0 0 0 -0.004,2.82001a265.85999,265.85999 0 0 1 -0.00507,1.626q-0.01398,2.29299 -0.06998,3.699l-0.00003,-0.00002l-0.00006,0.00002zm41.32501,-20.25002l-0.375,0a5.53,5.53 0 0 0 -4.138,1.83302a8.546,8.546 0 0 0 -0.849,1.05399a9.965,9.965 0 0 0 -1.30597,2.797q-0.383,1.27399 -0.55103,2.804a23.298,23.298 0 0 0 -0.13098,2.53698a16.919,16.919 0 0 0 0.15399,2.36q0.16901,1.19901 0.52502,2.17202a6.967,6.967 0 0 0 0.93396,1.76797a6.634,6.634 0 0 0 1.06204,1.147a4.147,4.147 0 0 0 2.72495,1.02802a5.316,5.316 0 0 0 3.76904,-1.547a7.295,7.295 0 0 0 0.39398,-0.40299q1.76199,-1.95 2.362,-5.625q-2.32501,-1.575 -3.56198,-4.12501q-1.23807,-2.55 -1.23807,-5.4q0,-1.19999 0.22504,-2.4l0,0.00002l0,-0.00002zm74.92499,-31.19997q-1.125,0 -2.51196,2.812a23.529,23.529 0 0 0 -0.85303,1.971q-0.922,2.4 -1.772,5.829q-1.23801,4.988 -2.06299,11.06298q4.42502,-3.82498 6.63803,-8.588a27.939,27.939 0 0 0 1.34796,-3.44999q0.86401,-2.775 0.86401,-5.21201a18.127,18.127 0 0 0 -0.04901,-1.391q-0.16998,-2.198 -0.93399,-2.804a1.044,1.044 0 0 0 -0.66702,-0.23l0,0.00001l0,0.00001zm-192.756,18.24599a10.859,10.859 0 0 0 1.73099,0.12901a9.7,9.7 0 0 0 2.08801,-0.21301a6.639,6.639 0 0 0 3.08699,-1.55a5.666,5.666 0 0 0 1.664,-2.647a7.441,7.441 0 0 0 0.28598,-2.11499q0,-2.475 -1.72499,-3.82501q-1.08101,-0.847 -2.57602,-1.162a9.306,9.306 0 0 0 -1.92398,-0.188a9.745,9.745 0 0 0 -1.213,0.07301a7.294,7.294 0 0 0 -3.92401,1.689a7.07,7.07 0 0 0 -0.30998,0.28099a5.485,5.485 0 0 0 -1.75301,4.10701a7.177,7.177 0 0 0 0.15398,1.52699a4.786,4.786 0 0 0 1.42105,2.56001a4.724,4.724 0 0 0 1.32596,0.85799q0.73901,0.326 1.66801,0.47601l0,-0.00002l0.00002,0z" id="svg_21"/>
  </g>
  <g transform="rotate(-20 1331.15 124.036)" id="svg_22" fill="none" stroke-width="0.25mm" stroke="#000" font-size="9pt" fill-rule="evenodd" stroke-linecap="round">
   <path d="m258.26099,5.10201q-17.63998,0 -27.44998,-9.99001a33.657,33.657 0 0 1 -9.192,-18.55a47.552,47.552 0 0 1 -0.618,-7.82a62.437,62.437 0 0 1 1.351,-13.28a48.444,48.444 0 0 1 4.409,-12.28a48.662,48.662 0 0 1 6.967,-10.114a40.134,40.134 0 0 1 7.97301,-6.806a37.168,37.168 0 0 1 10.91499,-4.883a33.229,33.229 0 0 1 8.345,-1.057a26.926,26.926 0 0 1 6.285,0.691a17.888,17.888 0 0 1 9.10501,5.159q5.48999,5.85001 5.48999,15.03a28.503,28.503 0 0 1 -0.59302,5.962a20.536,20.536 0 0 1 -2.737,6.818a13.215,13.215 0 0 1 -2.39297,2.85a9.298,9.298 0 0 1 -6.33701,2.37a11.741,11.741 0 0 1 -2.284,-0.209q-1.88,-0.373 -3.20602,-1.411a5.259,5.259 0 0 1 -2.043,-3.864a7.455,7.455 0 0 1 -0.02698,-0.636a10.632,10.632 0 0 1 0.069,-1.171q0.06598,-0.598 0.19699,-1.26a19.074,19.074 0 0 1 0.09399,-0.449a227.265,227.265 0 0 1 0.16901,-0.754q0.23599,-1.046 0.371,-1.586q0.89999,-2.7 0.89999,-5.04q0,-1.697 -0.616,-2.827a3.814,3.814 0 0 0 -0.55399,-0.773q-1.14401,-1.232 -3.233,-1.259a7.293,7.293 0 0 0 -0.09702,-0.001a9.49,9.49 0 0 0 -5.142,1.552q-1.32199,0.834 -2.578,2.118a17.855,17.855 0 0 0 -0.01999,0.02q-3.26201,3.344 -5.34201,8.832a38.506,38.506 0 0 0 -0.418,1.158a40.023,40.023 0 0 0 -1.94899,9.258a49.066,49.066 0 0 0 -0.21101,4.602a34.89,34.89 0 0 0 0.80901,7.88q2.498,10.734 12.714,12.605a25.866,25.866 0 0 0 4.65698,0.395a25.511,25.511 0 0 0 7.17603,-1.087q3.09299,-0.906 6.36398,-2.564a48.996,48.996 0 0 0 2.39001,-1.299a52.456,52.456 0 0 0 7.95599,-5.728a75.239,75.239 0 0 0 1.93701,-1.746a44.196,44.196 0 0 1 -0.43701,-5.871a50.894,50.894 0 0 1 -0.00601,-0.785a61.264,61.264 0 0 1 1.452,-13.602a49.63,49.63 0 0 1 3.76801,-10.788q5.22,-10.71 14.39999,-16.74q9.18002,-6.03 20.34003,-6.03q13.67999,0 22.04999,9.45q8.37,9.45 9.81,23.31a77.559,77.559 0 0 0 6.80099,-0.759a117.764,117.764 0 0 0 7.495,-1.419a147.49899,147.49899 0 0 1 3.78403,-17.017a138.496,138.496 0 0 1 1,-3.305a17.429,17.429 0 0 1 1.50598,-3.522a11.976,11.976 0 0 1 3.80402,-4.128a12.964,12.964 0 0 1 3.48798,-1.573q2.90802,-0.857 6.862,-0.857q2.79703,0 4.29001,0.543a3.983,3.983 0 0 1 0.75,0.357q1.44,0.9 1.44,3.42a12.667,12.667 0 0 1 -0.129,1.604q-0.461,3.481 -2.57101,11.356q-1.237,4.95 -2.13498,9.049a201.13,201.13 0 0 0 -0.745,3.551q-1.08002,5.4 -1.80002,13.32q5.94,-15.48 13.32001,-25.2a77.326,77.326 0 0 1 5.04199,-6.02299q2.65201,-2.84 5.26901,-4.941a34.164,34.164 0 0 1 4.17899,-2.896a37.323,37.323 0 0 1 4.75,-2.35699q2.68201,-1.08601 5.17801,-1.511a18.607,18.607 0 0 1 3.12201,-0.272a16.843,16.843 0 0 1 4.63,0.58q7.06998,2.025 7.06998,11.12a13.647,13.647 0 0 1 -0.05698,1.112q-0.22702,2.685 -1.36102,9.099a375.00299,375.00299 0 0 1 -0.202,1.129q-1.138,5.692 -1.37698,8.009a10.132,10.132 0 0 0 -0.06302,0.991q0,6.172 4.31799,6.298a6.236,6.236 0 0 0 0.18201,0.002a8.812,8.812 0 0 0 3.246,-0.698q1.48999,-0.594 3.16299,-1.694a33.567,33.567 0 0 0 2.064,-1.491a340.28299,340.28299 0 0 1 5.83701,-37.607a279.09698,279.09698 0 0 1 6.38702,-24.94099q3.922,-12.69901 8.78299,-23.338a145.015,145.015 0 0 1 5.35001,-10.58101a80.847,80.847 0 0 1 6.26099,-9.646q8.30099,-10.845 17.56702,-13.082a20.726,20.726 0 0 1 4.88199,-0.582a14.982,14.982 0 0 1 7.32999,1.774q2.849,1.564 5.026,4.506a20.945,20.945 0 0 1 0.87402,1.28q4.76996,7.56 4.76996,20.34a85.263,85.263 0 0 1 -7.71796,34.201q-12.04001,27.576 -42.86203,57.959q-1.79999,17.64 -1.79999,30.96q0,18.54 1.26001,38.07a209.011,209.011 0 0 0 0.43298,5.626q1.02301,11.132 2.784,13.352a1.211,1.211 0 0 0 0.923,0.552q4.54102,0 5.263,-13.236a101.136,101.136 0 0 0 0.13699,-5.484a191.244,191.244 0 0 0 -1.77399,-26.35799a176.73,176.73 0 0 0 -0.116,-0.82201a348.814,348.814 0 0 0 -2.89001,-16.987a416.009,416.009 0 0 0 -2.23999,-10.733a5.961,5.961 0 0 1 -0.017,-0.457q0,-2.133 1.42099,-5.213a26.487,26.487 0 0 1 0.12601,-0.27a25.289,25.289 0 0 1 3.14801,-5.053a22.885,22.885 0 0 1 1.082,-1.247a14.76,14.76 0 0 1 1.22598,-1.181q1.366,-1.159 2.55402,-1.434a3.195,3.195 0 0 1 0.72,-0.085q3.60001,0 8.63998,0.36a27.253,27.253 0 0 0 1.521,0.123q0.78302,0.043 1.66202,0.054a49.153,49.153 0 0 0 0.59698,0.003a97.181,97.181 0 0 0 7.60501,-0.315a133.483,133.483 0 0 0 7.84799,-0.864a136.67599,136.67599 0 0 1 0.02704,-0.171q1.79999,-11.25 5.93994,-23.85a22.476,22.476 0 0 1 1.336,-3.214q1.52704,-2.954 3.70404,-4.526a10.027,10.027 0 0 1 2.67401,-1.332q2.979,-1.008 7.586,-1.008a19.625,19.625 0 0 1 1.828,0.079q1.81799,0.171 2.922,0.712a3.773,3.773 0 0 1 0.73999,0.469q1.52997,1.26 1.52997,3.78q0,1.44 -1.97998,9.72q-1.742,6.446 -2.81,11.711a133.69299,133.69299 0 0 0 -0.07001,0.349q-3.59998,18.9 -3.59998,25.2q0,2.937 0.54297,4.516a4.375,4.375 0 0 0 0.35699,0.794q0.90002,1.53 2.88,1.53a3.754,3.754 0 0 0 1.698,-0.463q2.18903,-1.119 5.052,-4.937a42.99,42.99 0 0 0 2.58398,-3.92q2.90002,-4.911 6.05603,-12.46a159.05499,159.05499 0 0 0 3.40503,-8.944q1.75299,-5.027 3.46497,-10.823a315.651,315.651 0 0 0 2.03998,-7.233q0.96002,-3.602 2.60205,-5.842a9.666,9.666 0 0 1 1.80798,-1.89799q2.96997,-2.34 8.90997,-2.34q4.14001,0 5.76001,0.99q1.37604,0.841 1.58301,2.917a7.801,7.801 0 0 1 0.03699,0.773a20.838,20.838 0 0 1 -0.15796,2.238q-0.63202,5.564 -3.78204,19.895a805.901,805.901 0 0 1 -0.56,2.527a767.36102,767.36102 0 0 0 -1.71301,8.02q-3.27197,15.766 -3.32599,20.271a12.352,12.352 0 0 0 -0.00098,0.149a13.172,13.172 0 0 0 0.14099,1.988q0.30902,2.023 1.29901,3.322a4.875,4.875 0 0 0 1.461,1.309q0.98901,0.563 2.23798,0.581a5.736,5.736 0 0 0 0.08099,0a7.552,7.552 0 0 0 2.63501,-0.521q2.24298,-0.837 4.89801,-3.018a33.414,33.414 0 0 0 1.01703,-0.871q4.11597,-3.667 10.53497,-11.13a303.07999,303.07999 0 0 0 2.69501,-3.18a8.575,8.575 0 0 1 1.51196,-1.409a5.647,5.647 0 0 1 3.34802,-1.111a4.005,4.005 0 0 1 3.14899,1.426a5.697,5.697 0 0 1 0.54102,0.734a7.876,7.876 0 0 1 0.88702,2.067q0.27496,0.984 0.38696,2.165a18.144,18.144 0 0 1 0.07599,1.708q0,7.2 -3.41998,11.16a86.329,86.329 0 0 1 -9.604,10.12301a71.369,71.369 0 0 1 -7.04596,5.53698q-8.91003,6.12002 -20.25,6.12002a17.618,17.618 0 0 1 -5.17603,-0.71702a13.049,13.049 0 0 1 -7.51398,-5.94299q-4.05005,-6.66 -4.05005,-18.72a60.307,60.307 0 0 1 -2.46497,7.745q-1.60303,4.01001 -3.66901,7.15901a29.297,29.297 0 0 1 -3.04602,3.90599q-4.93097,5.294 -10.44696,6.322a14.663,14.663 0 0 1 -2.69299,0.24801a14.864,14.864 0 0 1 -11.54303,-5.306a21.974,21.974 0 0 1 -1.68701,-2.16401q-5.13,-7.47 -5.13,-18.63a176.41901,176.41901 0 0 1 0.04004,-4.101a46.137,46.137 0 0 1 -7.09402,0.663a66.344,66.344 0 0 1 -1.586,0.018a32.655,32.655 0 0 1 -2.729,-0.128q-3.86899,-0.327 -9.69098,-1.492q2.34,11.16 3.87,24.75001q1.53,13.58999 1.53,22.40999a96.806,96.806 0 0 1 -0.55502,10.734q-1.28198,11.451 -5.51999,18.593a28.794,28.794 0 0 1 -0.22501,0.373a25.934,25.934 0 0 1 -4.32401,5.411a17.313,17.313 0 0 1 -12.23599,4.849a15.676,15.676 0 0 1 -13.08701,-6.905q-3.23999,-4.355 -5.36298,-11.455a97.651,97.651 0 0 1 -2.65402,-11.808q-2.17099,-13.001 -2.67999,-31.67a439.582,439.582 0 0 1 -0.15601,-11.962a340.28299,340.28299 0 0 1 0.23102,-11.752a29.395,29.395 0 0 1 -13.91101,3.472q-6.67099,0 -11.09698,-2.376a14.807,14.807 0 0 1 -3.39301,-2.484a16.168,16.168 0 0 1 -4.55701,-8.746a23.454,23.454 0 0 1 -0.39301,-4.394q0,-2.7 0.54001,-5.4q0.31201,-3.115 0.353,-4.478a12.525,12.525 0 0 0 0.00699,-0.382q0,-2.801 -1.87299,-2.878a2.614,2.614 0 0 0 -0.10699,-0.002a3.531,3.531 0 0 0 -1.629,0.464q-2.07202,1.091 -4.871,4.75a47.095,47.095 0 0 0 -0.61002,0.816a59.39,59.39 0 0 0 -3.29498,5.067q-2.73502,4.676 -5.435,10.863q-4.32001,9.9 -7.02002,20.88q-1.97998,8.46 -4.59,11.43a8.039,8.039 0 0 1 -3.48099,2.273q-1.31702,0.45801 -2.93301,0.615a18.363,18.363 0 0 1 -1.776,0.08201a9.907,9.907 0 0 1 -4.633,-1.05001q-2.173,-1.128 -3.664,-3.47a15.222,15.222 0 0 1 -1.33301,-2.68001q-2.28098,-5.88598 -2.69699,-17.54599a154.293,154.293 0 0 1 -0.09299,-5.494a147.49899,147.49899 0 0 1 0.05298,-4.691a77.203,77.203 0 0 1 -5.97598,0.971a94.151,94.151 0 0 1 -7.93701,0.66q-3.41998,15.12 -13.5,24.20999a35.679,35.679 0 0 1 -11.06799,6.94001a32.495,32.495 0 0 1 -11.79199,2.15001a37.269,37.269 0 0 1 -9.14102,-1.07201a28.925,28.925 0 0 1 -9.30899,-4.148a33.154,33.154 0 0 1 -8.94101,-9.026a58.387,58.387 0 0 1 -13.01898,8.57601a61.138,61.138 0 0 1 -10.875,4.06999a46.483,46.483 0 0 1 -11.89502,1.60001zm248.58002,-152.28a2.941,2.941 0 0 0 -1.772,0.73q-2.698,2.101 -6.23801,10.25q-3.20499,7.377 -6.36899,17.964a310.12201,310.12201 0 0 0 -3.08099,11.106a444.702,444.702 0 0 0 -6.311,28.3a509.04599,509.04599 0 0 0 -1.789,9.95a141.17101,141.17101 0 0 0 15.23801,-20.733a118.356,118.356 0 0 0 6.90198,-13.377q7.40002,-16.951 7.89001,-31.84499a64.276,64.276 0 0 0 0.03,-1.36501q0,-10.98 -4.5,-10.98zm-179.28,86.39999l-0.89999,0a13.271,13.271 0 0 0 -9.93201,4.401a20.511,20.511 0 0 0 -2.03799,2.529a23.915,23.915 0 0 0 -3.13202,6.711q-0.922,3.058 -1.32498,6.732a55.915,55.915 0 0 0 -0.31302,6.087a40.607,40.607 0 0 0 0.36902,5.665q0.40601,2.877 1.26099,5.213a16.721,16.721 0 0 0 2.23999,4.242q3.87003,5.22 9.09003,5.22a12.759,12.759 0 0 0 9.04599,-3.712a17.508,17.508 0 0 0 0.944,-0.968q4.23001,-4.68 5.66998,-13.5q-5.57999,-3.78 -8.54999,-9.9q-2.97,-6.12 -2.97,-12.96q0,-2.88 0.54001,-5.76z" id="svg_23" stroke-width="5" fill="url(#svg_27)" stroke="url(#svg_26)"/>
  </g>
 </g>
</svg>
